<?xml version="1.0" encoding="iso-8859-1"?>
<!-- Generator: Adobe Illustrator 19.0.0, SVG Export Plug-In . SVG Version: 6.00 Build 0)  -->
<svg version="1.1" id="Layer_1" xmlns="http://www.w3.org/2000/svg" xmlns:xlink="http://www.w3.org/1999/xlink" x="0px" y="0px"
	 viewBox="0 0 512 512" style="enable-background:new 0 0 512 512;" xml:space="preserve">
<path style="fill:#E8D6BD;" d="M492.936,444.596l-6.405,22.419c-2.473,8.639-11.841,15.709-20.829,15.709H46.298
	c-8.987,0-18.356-7.07-20.829-15.709l-6.405-22.419H492.936z"/>
<path style="fill:#F9EBDB;" d="M24.413,187.234v16.34c0,55.557,45.198,100.766,100.766,100.766h20.317
	c9.989,24.086,18.138,48.586,18.138,74.894c0,18.051,14.63,32.681,32.681,32.681h119.83c18.04,0,32.681-14.63,32.681-32.681
	c0-68.042,54.468-123.958,54.468-192H24.413z M125.179,271.66c-31.907,0-58.771-22.07-66.102-51.745h54.021
	c4.096,17.691,10.915,34.772,18.236,51.745H125.179z"/>
<g>
	<path style="fill:#FFFFFF;" d="M352.514,240.344c-0.779,0-1.571-0.112-2.355-0.348c-4.322-1.3-6.771-5.855-5.472-10.177
		c4.615-15.349,6.858-29.279,6.858-42.585c0-4.512,3.657-8.17,8.17-8.17c4.513,0,8.17,3.658,8.17,8.17
		c0,14.923-2.47,30.391-7.549,47.289C359.271,238.06,356.026,240.344,352.514,240.344z"/>
	<path style="fill:#FFFFFF;" d="M305.713,376.511c-0.228,0-0.456-0.01-0.686-0.028c-4.497-0.374-7.839-4.322-7.466-8.818
		c2.591-31.162,15.223-59.912,27.439-87.715c2.632-5.988,5.352-12.181,7.912-18.265c1.75-4.159,6.538-6.114,10.699-4.363
		c4.159,1.75,6.112,6.539,4.363,10.699c-2.609,6.203-5.356,12.456-8.012,18.503c-12.214,27.797-23.75,54.053-26.114,82.495
		C313.49,373.283,309.918,376.511,305.713,376.511z"/>
</g>
<g>
	<path style="fill:#700D00;" d="M503.83,436.426h-11.064c-0.031,0-473.508,0-473.508,0c-0.014,0-11.088,0-11.088,0
		c-4.513,0-8.17,3.658-8.17,8.17c0,4.512,3.657,8.17,8.17,8.17h4.731l4.711,16.491c3.466,12.132,16.066,21.637,28.685,21.637
		h419.404c12.619,0,25.219-9.505,28.686-21.637l4.711-16.491h4.73c4.513,0,8.17-3.658,8.17-8.17
		C512,440.084,508.343,436.426,503.83,436.426z M478.676,464.767c-1.464,5.122-7.648,9.786-12.974,9.786H46.298
		c-5.327,0-11.51-4.665-12.973-9.786l-3.429-12.001h452.209L478.676,464.767z"/>
	<path style="fill:#700D00;" d="M125.179,312.511h14.827c8.267,20.536,15.453,42.738,15.453,66.723
		c0,22.526,18.325,40.851,40.851,40.851h119.83c22.526,0,40.851-18.325,40.851-40.851c0-32.303,12.894-61.647,26.543-92.713
		c13.729-31.244,27.925-63.551,27.925-99.287c0-4.512-3.657-8.17-8.17-8.17H24.413c-4.513,0-8.17,3.658-8.17,8.17v16.34
		C16.242,263.642,65.111,312.511,125.179,312.511z M32.583,195.404h362.264c-1.925,29.13-13.781,56.115-26.272,84.542
		c-13.729,31.245-27.925,63.552-27.925,99.288c0,13.516-10.996,24.511-24.511,24.511h-119.83c-13.515,0-24.511-10.995-24.511-24.511
		c0-28.897-9.483-55.658-18.76-78.024c-1.266-3.051-4.244-5.039-7.547-5.039h-20.313c-51.057,0-92.596-41.538-92.596-92.596
		C32.583,203.574,32.583,195.404,32.583,195.404z"/>
	<path style="fill:#700D00;" d="M125.177,279.83h6.159c2.75,0,5.316-1.385,6.828-3.682c1.511-2.297,1.764-5.202,0.672-7.727
		c-6.859-15.881-13.76-32.972-17.776-50.346c-0.857-3.705-4.157-6.33-7.961-6.33H59.075c-2.512,0-4.885,1.156-6.433,3.133
		c-1.549,1.978-2.101,4.559-1.499,6.997C59.578,255.999,90.024,279.83,125.177,279.83z M106.719,228.085
		c3.23,12.09,7.562,23.839,12.165,35.077c-21.356-2.227-39.737-15.679-48.398-35.077H106.719z"/>
</g>
<g>
	<path style="fill:#E8D6BD;" d="M217.872,162.723c-4.513,0-8.17-3.658-8.17-8.17c0-12.442,3.386-18.932,6.374-24.657
		c2.525-4.84,4.52-8.663,4.52-17.099c0-8.437-1.995-12.261-4.52-17.101c-2.987-5.726-6.374-12.216-6.374-24.66
		s3.386-18.933,6.374-24.66c2.525-4.84,4.52-8.664,4.52-17.101c0-4.512,3.657-8.17,8.17-8.17s8.17,3.658,8.17,8.17
		c0,12.443-3.386,18.933-6.374,24.66c-2.525,4.84-4.52,8.664-4.52,17.101s1.995,12.261,4.52,17.101
		c2.987,5.726,6.374,12.216,6.374,24.66c0,12.442-3.386,18.932-6.374,24.657c-2.525,4.84-4.52,8.663-4.52,17.099
		C226.043,159.065,222.386,162.723,217.872,162.723z"/>
	<path style="fill:#E8D6BD;" d="M283.234,162.723c-4.513,0-8.17-3.658-8.17-8.17c0-12.442,3.386-18.932,6.374-24.657
		c2.525-4.84,4.52-8.663,4.52-17.099c0-8.437-1.995-12.261-4.52-17.101c-2.987-5.726-6.374-12.216-6.374-24.66
		s3.386-18.933,6.374-24.66c2.525-4.84,4.52-8.664,4.52-17.101c0-4.512,3.657-8.17,8.17-8.17c4.513,0,8.17,3.658,8.17,8.17
		c0,12.443-3.386,18.933-6.374,24.66c-2.525,4.84-4.52,8.664-4.52,17.101s1.995,12.261,4.52,17.101
		c2.987,5.726,6.374,12.216,6.374,24.66c0,12.442-3.386,18.932-6.374,24.657c-2.525,4.84-4.52,8.663-4.52,17.099
		C291.404,159.065,287.747,162.723,283.234,162.723z"/>
</g>
<g>
</g>
<g>
</g>
<g>
</g>
<g>
</g>
<g>
</g>
<g>
</g>
<g>
</g>
<g>
</g>
<g>
</g>
<g>
</g>
<g>
</g>
<g>
</g>
<g>
</g>
<g>
</g>
<g>
</g>
</svg>
