<?xml version="1.0" encoding="iso-8859-1"?>
<!-- Generator: Adobe Illustrator 19.0.0, SVG Export Plug-In . SVG Version: 6.00 Build 0)  -->
<svg version="1.1" id="Layer_1" xmlns="http://www.w3.org/2000/svg" xmlns:xlink="http://www.w3.org/1999/xlink" x="0px" y="0px"
	 viewBox="0 0 512 512" style="enable-background:new 0 0 512 512;" xml:space="preserve">
<path style="fill:#FFFFFF;" d="M381.211,40.851H210.834c0-18.051,14.63-32.681,32.681-32.681c10.752,0,20.295,5.196,26.254,13.214
	c5.948-8.018,15.491-13.214,26.254-13.214c10.752,0,20.295,5.196,26.254,13.214c5.948-8.018,15.491-13.214,26.243-13.214
	C366.569,8.17,381.2,22.8,381.211,40.851z"/>
<path style="fill:#C8FEFF;" d="M414.131,40.851l-25.284,245.422c-3.268,31.722-31.21,57.856-62.867,59.512l-59.915,0.087
	c-32.038-1.253-60.405-27.583-63.608-59.621h-17.441c-23.28,0-45.165-9.064-61.625-25.524s-25.524-38.346-25.524-61.625
	s9.063-45.165,25.524-61.625s38.346-25.524,61.625-25.524l-7.114-71.103h32.931l24.14,242.154
	c1.601,16.079,17.19,30.186,33.356,30.186h54.468c16.21,0,31.886-14.14,33.541-30.273l24.87-242.067H414.131z M199.178,253.571
	l-10.894-108.936h-3.268c-14.543,0-28.225,5.665-38.509,15.959c-10.294,10.284-15.959,23.966-15.959,38.509
	c0,14.554,5.665,28.225,15.959,38.52c10.284,10.284,23.966,15.948,38.509,15.948L199.178,253.571L199.178,253.571z"/>
<path style="fill:#74D1D2;" d="M325.98,378.553c9.02,0,16.34,7.32,16.34,16.34c0,9.02-7.321,16.34-16.34,16.34v21.787
	c0,25.306,60.47,41.57,60.47,41.57c8.682,2.342,15.785,11.602,15.785,20.589v8.65H189.81v-8.65c0-8.987,7.092-18.247,15.774-20.589
	c0,0,60.481-16.264,60.481-41.57v-21.787c-9.031,0-16.34-7.321-16.34-16.34c0-9.02,7.31-16.34,16.34-16.34v-32.681l59.915-0.087
	V378.553z"/>
<path style="fill:#B75548;" d="M381.211,40.851l-24.87,242.067c-1.656,16.133-17.332,30.273-33.541,30.273h-54.468
	c-16.166,0-31.755-14.107-33.356-30.186l-24.14-242.154H381.211z"/>
<g>
	<path style="fill:#700D00;" d="M196.418,143.824c-0.418-4.177-3.933-7.358-8.13-7.358h-3.27c-16.73,0-32.46,6.515-44.291,18.347
		c-11.829,11.83-18.345,27.561-18.345,44.291c0,16.732,6.515,32.462,18.347,44.291c11.829,11.83,27.56,18.347,44.291,18.347h14.164
		c2.308,0,4.509-0.976,6.058-2.689s2.302-3.998,2.072-6.294L196.418,143.824z M185.02,245.403c-12.368,0-23.993-4.816-32.738-13.56
		c-8.744-8.743-13.56-20.37-13.56-32.738c0-12.366,4.816-23.992,13.559-32.738c7.769-7.77,17.814-12.438,28.631-13.382l9.243,92.417
		H185.02z"/>
	<path style="fill:#700D00;" d="M396.979,287.11l25.276-245.421c0.236-2.301-0.513-4.594-2.062-6.311s-3.753-2.697-6.066-2.697
		h-25.575C384.756,14.057,368.25,0,348.523,0c-9.647,0-18.96,3.473-26.254,9.572C314.978,3.473,305.667,0,296.018,0
		s-18.96,3.473-26.254,9.572C262.472,3.473,253.16,0,243.512,0c-19.728,0-36.233,14.057-40.029,32.681h-25.575
		c-2.308,0-4.509,0.976-6.058,2.689c-1.549,1.712-2.302,3.998-2.072,6.294l6.255,62.537c-22.069,2.05-42.548,11.635-58.416,27.504
		c-18.003,18.003-27.917,41.94-27.916,67.4c0,25.461,9.915,49.398,27.918,67.402c18.005,18.003,41.942,27.918,67.401,27.917h10.436
		c6.291,30.156,31.889,54.248,62.436,58.821v18.538c-9.51,3.373-16.34,12.459-16.34,23.111s6.83,19.738,16.34,23.111v15.017
		c0,12.957-32.48,27.758-54.429,33.683c-12.239,3.292-21.826,15.8-21.826,28.475v8.651c0,4.513,3.658,8.17,8.17,8.17h212.426
		c4.513,0,8.17-3.657,8.17-8.17v-8.651c0-12.675-9.587-25.182-21.824-28.474c-21.951-5.925-54.431-20.727-54.431-33.684v-15.017
		c9.51-3.373,16.34-12.459,16.34-23.111s-6.83-19.738-16.34-23.111v-18.674C366.673,347.769,393.578,320.124,396.979,287.11z
		 M243.512,16.34c7.835,0,15.014,3.616,19.695,9.919c1.541,2.076,3.974,3.3,6.559,3.3s5.018-1.223,6.559-3.3
		c4.681-6.303,11.86-9.919,19.693-9.919c7.834,0,15.011,3.615,19.692,9.919c1.541,2.075,3.974,3.299,6.559,3.299
		c2.585,0,5.018-1.223,6.559-3.299c4.682-6.304,11.861-9.919,19.695-9.919c10.65,0,19.729,6.831,23.103,16.34H220.409
		C223.781,23.172,232.861,16.34,243.512,16.34z M325.55,337.628c-4.34,0.228-7.743,3.813-7.743,8.159v24.596h-19.064
		c-4.513,0-8.17,3.657-8.17,8.17c0,4.513,3.657,8.17,8.17,8.17h27.234c4.506,0,8.17,3.665,8.17,8.17s-3.665,8.17-8.17,8.17
		c-4.513,0-8.17,3.657-8.17,8.17v21.787c0,13.911,11.736,26.576,34.882,37.646c15.617,7.468,30.993,11.643,31.641,11.816
		c5.094,1.37,9.732,7.422,9.732,12.695v0.48H197.977v-0.48c0-5.275,4.638-11.325,9.731-12.695
		c0.647-0.173,16.023-4.348,31.641-11.816c23.148-11.069,34.884-23.735,34.884-37.646v-13.617h19.064c4.513,0,8.17-3.657,8.17-8.17
		c0-4.513-3.657-8.17-8.17-8.17h-27.234c-4.506,0-8.17-3.665-8.17-8.17s3.665-8.17,8.17-8.17c4.513,0,8.17-3.657,8.17-8.17v-24.511
		h19.064c4.513,0,8.17-3.657,8.17-8.17c0-4.513-3.657-8.17-8.17-8.17h-26.33c-0.198-0.022-0.397-0.045-0.599-0.052
		c-27.985-1.045-53.009-24.466-55.784-52.209c-0.417-4.177-3.933-7.358-8.13-7.358H185.02c-21.094,0.001-40.927-8.214-55.846-23.131
		c-14.917-14.917-23.133-34.75-23.133-55.847c0-21.095,8.215-40.928,23.13-55.847c14.917-14.917,34.751-23.132,55.848-23.132
		c2.308,0,4.509-0.976,6.058-2.689c1.549-1.712,2.302-3.998,2.072-6.294l-6.214-62.122h16.498l23.406,234.793
		c2.036,20.354,21.036,37.547,41.489,37.547h54.468c20.49,0,39.572-17.22,41.672-37.602l10.963-106.456
		c0.462-4.488-2.802-8.502-7.29-8.964c-4.501-0.448-8.502,2.803-8.964,7.29l-10.963,106.456
		c-1.238,12.004-13.352,22.935-25.418,22.935H268.33c-12.009,0-24.035-10.883-25.23-22.83l-23.245-233.17h152.3l-9.63,94.107
		c-0.46,4.489,2.807,8.5,7.295,8.96c4.501,0.458,8.501-2.807,8.96-7.295l9.801-95.771h16.491l-24.349,236.414
		C377.909,312.772,353.157,336.186,325.55,337.628z"/>
</g>
<g>
</g>
<g>
</g>
<g>
</g>
<g>
</g>
<g>
</g>
<g>
</g>
<g>
</g>
<g>
</g>
<g>
</g>
<g>
</g>
<g>
</g>
<g>
</g>
<g>
</g>
<g>
</g>
<g>
</g>
</svg>
