<?xml version="1.0" encoding="UTF-8" standalone="no"?>
<svg
   xmlns:dc="http://purl.org/dc/elements/1.1/"
   xmlns:cc="http://creativecommons.org/ns#"
   xmlns:rdf="http://www.w3.org/1999/02/22-rdf-syntax-ns#"
   xmlns:svg="http://www.w3.org/2000/svg"
   xmlns="http://www.w3.org/2000/svg"
   xmlns:sodipodi="http://sodipodi.sourceforge.net/DTD/sodipodi-0.dtd"
   xmlns:inkscape="http://www.inkscape.org/namespaces/inkscape"
   inkscape:version="1.0 (4035a4fb49, 2020-05-01)"
   sodipodi:docname="White Mocha.svg"
   xml:space="preserve"
   style="enable-background:new 0 0 512 512;"
   viewBox="0 0 512 512"
   y="0px"
   x="0px"
   id="Layer_1"
   version="1.1"><metadata
   id="metadata57"><rdf:RDF><cc:Work
       rdf:about=""><dc:format>image/svg+xml</dc:format><dc:type
         rdf:resource="http://purl.org/dc/dcmitype/StillImage" /></cc:Work></rdf:RDF></metadata><defs
   id="defs55" /><sodipodi:namedview
   inkscape:current-layer="Layer_1"
   inkscape:window-maximized="1"
   inkscape:window-y="-8"
   inkscape:window-x="-8"
   inkscape:cy="256"
   inkscape:cx="256"
   inkscape:zoom="1.6601562"
   showgrid="false"
   id="namedview53"
   inkscape:window-height="1017"
   inkscape:window-width="1920"
   inkscape:pageshadow="2"
   inkscape:pageopacity="0"
   guidetolerance="10"
   gridtolerance="10"
   objecttolerance="10"
   borderopacity="1"
   bordercolor="#666666"
   pagecolor="#ffffff" />
<path
   id="path2"
   d="M 413.957,140.705 H 386.723 125.277 c 0,-38.868 31.504,-70.384 70.384,-70.384 1.667,0 3.312,0.076 4.957,0.196 6.449,-32.223 34.881,-56.494 69,-56.494 34.119,0 62.551,24.271 69,56.494 1.645,-0.12 3.29,-0.196 4.957,-0.196 38.878,0 70.382,31.515 70.382,70.384 z"
   style="fill:#ffffff" />
<path
   id="path4"
   d="m 492.936,419.854 -6.405,22.419 c -2.473,8.639 -11.841,15.709 -20.829,15.709 H 73.532 c -8.987,0 -18.356,-7.07 -20.829,-15.709 l -6.405,-22.419 z"
   style="fill:#f9ebdb" />
<path
   id="path6"
   d="M 26.014,140.705 C 14.794,156.098 8.17,175.031 8.17,195.5 c 0,51.407 41.821,93.238 93.238,93.238 h 20.033 c 24.315,57.823 81.506,98.435 148.175,98.435 88.739,0 160.681,-71.941 160.681,-160.681 v -85.787 z m 75.395,115.352 c -33.389,0 -60.558,-27.169 -60.558,-60.558 0,-7.669 1.427,-15.142 4.172,-22.114 h 63.913 v 53.106 c 0,10.098 0.937,19.979 2.723,29.565 h -10.25 z"
   style="fill:#f7cd95" />
<g
   transform="translate(0,-20)"
   id="g12">
	<path
   id="path8"
   d="m 386.723,226.745 v 9.536 c 0,64.572 -52.534,117.106 -117.106,117.106"
   style="fill:none;stroke:#ffffff;stroke-width:15;stroke-linecap:round;stroke-linejoin:round;stroke-miterlimit:10" />
	
		<line
   id="line10"
   y2="194.07001"
   x2="386.72299"
   y1="150.495"
   x1="386.72299"
   style="fill:none;stroke:#ffffff;stroke-width:15;stroke-linecap:round;stroke-linejoin:round;stroke-miterlimit:10" />
</g>
<g
   transform="translate(0,-20)"
   id="g20">
	<path
   id="path14"
   d="M 503.83,431.684 H 35.404 c -4.512,0 -8.17,3.658 -8.17,8.17 0,4.512 3.658,8.17 8.17,8.17 h 4.731 l 4.711,16.49 c 3.466,12.133 16.066,21.638 28.685,21.638 h 392.17 c 12.619,0 25.219,-9.505 28.686,-21.637 l 4.712,-16.491 h 4.73 c 4.513,0 8.17,-3.658 8.17,-8.17 0,-4.512 -3.656,-8.17 -8.169,-8.17 z m -25.154,28.34 c -1.464,5.122 -7.648,9.786 -12.974,9.786 H 73.532 c -5.327,0 -11.51,-4.665 -12.973,-9.786 L 57.13,448.023 h 424.975 z"
   style="fill:#700d00" />
	<path
   id="path16"
   d="m 101.406,316.903 h 14.7 c 27.51,59.982 87.175,98.439 153.511,98.439 93.104,0 168.851,-75.747 168.851,-168.851 v -85.792 c 0,-4.512 -3.657,-8.17 -8.17,-8.17 h -8.597 C 417.647,113.493 384.895,82.857 344.966,82.163 335.239,49.15 304.591,25.848 269.617,25.848 c -34.974,0 -65.623,23.303 -75.349,56.315 -39.927,0.694 -72.681,31.33 -76.735,70.366 h -91.52 c -2.611,0 -5.064,1.248 -6.603,3.358 C 6.712,173.312 0,193.924 0,215.496 0,271.412 45.491,316.903 101.406,316.903 Z M 195.655,98.491 c 1.3,0 2.695,0.056 4.391,0.173 4.085,0.279 7.773,-2.518 8.579,-6.547 5.789,-28.931 31.439,-49.929 60.991,-49.929 29.551,0 55.202,20.997 60.991,49.929 0.806,4.028 4.476,6.824 8.58,6.547 1.695,-0.118 3.091,-0.173 4.39,-0.173 31.532,0 57.639,23.586 61.655,54.038 H 134 c 4.016,-30.452 30.124,-54.038 61.655,-54.038 z m -165.367,70.38 h 391.84 v 77.621 c 0,84.094 -68.416,152.511 -152.511,152.511 -61.569,0 -116.775,-36.676 -140.646,-93.437 -1.275,-3.032 -4.243,-5.002 -7.532,-5.002 H 101.407 C 54.501,300.563 16.341,262.403 16.341,215.497 16.34,198.774 21.15,182.739 30.288,168.871 Z"
   style="fill:#700d00" />
	<path
   id="path18"
   d="m 101.406,284.222 h 10.253 c 2.428,0 4.731,-1.081 6.283,-2.948 1.552,-1.867 2.194,-4.329 1.75,-6.716 -1.716,-9.227 -2.586,-18.671 -2.586,-28.067 V 193.38 c 0,-4.512 -3.658,-8.17 -8.17,-8.17 H 45.025 c -3.355,0 -6.369,2.051 -7.6,5.173 -3.148,7.984 -4.744,16.433 -4.744,25.113 0,37.896 30.83,68.726 68.725,68.726 z m -50.51,-82.67 h 49.87 v 44.941 c 0,7.137 0.454,14.298 1.352,21.391 h -0.711 c -28.886,-0.001 -52.385,-23.501 -52.385,-52.386 -10e-4,-4.77 0.629,-9.44 1.874,-13.946 z"
   style="fill:#700d00" />
</g>
<g
   transform="translate(0,-20)"
   id="g22">
</g>
<g
   transform="translate(0,-20)"
   id="g24">
</g>
<g
   transform="translate(0,-20)"
   id="g26">
</g>
<g
   transform="translate(0,-20)"
   id="g28">
</g>
<g
   transform="translate(0,-20)"
   id="g30">
</g>
<g
   transform="translate(0,-20)"
   id="g32">
</g>
<g
   transform="translate(0,-20)"
   id="g34">
</g>
<g
   transform="translate(0,-20)"
   id="g36">
</g>
<g
   transform="translate(0,-20)"
   id="g38">
</g>
<g
   transform="translate(0,-20)"
   id="g40">
</g>
<g
   transform="translate(0,-20)"
   id="g42">
</g>
<g
   transform="translate(0,-20)"
   id="g44">
</g>
<g
   transform="translate(0,-20)"
   id="g46">
</g>
<g
   transform="translate(0,-20)"
   id="g48">
</g>
<g
   transform="translate(0,-20)"
   id="g50">
</g>
</svg>
