<?xml version="1.0" encoding="iso-8859-1"?>
<!-- Generator: Adobe Illustrator 19.0.0, SVG Export Plug-In . SVG Version: 6.00 Build 0)  -->
<svg version="1.1" id="Layer_1" xmlns="http://www.w3.org/2000/svg" xmlns:xlink="http://www.w3.org/1999/xlink" x="0px" y="0px"
	 viewBox="0 0 512 512" style="enable-background:new 0 0 512 512;" xml:space="preserve">
<path style="fill:#FC9851;" d="M458.077,248.374c22.833,0,22.877,15.197,45.633,15.251C499.679,396.963,390.318,503.83,256,503.83
	S12.321,396.963,8.29,263.626c22.757-0.054,22.8-15.251,45.633-15.251c22.877,0,22.877,15.251,45.764,15.251
	c22.866,0,22.866-15.251,45.742-15.251s22.877,15.251,45.753,15.251l0.447-0.054c3.737,32.234,31.134,57.246,64.37,57.246
	s60.634-25.012,64.37-57.246l0.447,0.054c22.877,0,22.877-15.251,45.753-15.251c22.877,0,22.877,15.251,45.764,15.251
	C435.2,263.626,435.2,248.374,458.077,248.374z"/>
<path style="fill:#8E4238;" d="M503.83,256c0,2.549-0.044,5.098-0.12,7.626c-22.757-0.054-22.8-15.251-45.633-15.251
	c-22.877,0-22.877,15.251-45.742,15.251c-22.887,0-22.887-15.251-45.764-15.251c-22.877,0-22.877,15.251-45.753,15.251l-0.447-0.054
	c0.294-2.484,0.447-5.011,0.447-7.571c0-35.796-29.021-64.817-64.817-64.817S191.183,220.204,191.183,256
	c0,2.56,0.153,5.087,0.447,7.571l-0.447,0.054c-22.877,0-22.877-15.251-45.753-15.251s-22.877,15.251-45.742,15.251
	c-22.887,0-22.887-15.251-45.764-15.251c-22.833,0-22.877,15.197-45.633,15.251c-0.076-2.527-0.12-5.076-0.12-7.626
	C8.17,119.133,119.133,8.17,256,8.17S503.83,119.133,503.83,256z"/>
<g>
	<circle style="fill:#DC774E;" cx="384.675" cy="387.235" r="8.17"/>
	<circle style="fill:#DC774E;" cx="351.995" cy="354.555" r="8.17"/>
	<circle style="fill:#DC774E;" cx="133.49" cy="362.725" r="8.17"/>
</g>
<g>
	<path style="fill:#700D00;" d="M511.917,262.525c0.053-2.171,0.083-4.347,0.083-6.525c0-68.38-26.628-132.667-74.981-181.019
		S324.38,0,256,0S123.333,26.628,74.981,74.981S0,187.62,0,256c0,2.18,0.028,4.355,0.083,6.525C0.034,262.886,0,263.252,0,263.626
		c0,0.592,0.066,1.168,0.186,1.723C2.5,330.221,28.84,390.877,74.982,437.019C123.333,485.372,187.62,512,256,512
		s132.667-26.628,181.019-74.981c46.141-46.141,72.481-106.798,74.796-171.67c0.12-0.556,0.185-1.132,0.185-1.723
		C512,263.252,511.966,262.886,511.917,262.525z M256,16.34c131.629,0,238.797,106.668,239.64,238.102
		c-3.948-1.109-6.831-3.025-10.154-5.241c-6.013-4.009-13.496-8.998-27.407-8.998s-21.394,4.989-27.406,8.998
		c-5.241,3.494-9.379,6.253-18.344,6.253c-8.964,0-13.105-2.759-18.346-6.253c-6.014-4.009-13.497-8.998-27.409-8.998
		s-21.397,4.989-27.41,8.998c-3.34,2.226-6.237,4.15-10.215,5.256c-0.826-39.534-33.219-71.445-72.948-71.445
		s-72.121,31.911-72.948,71.445c-3.977-1.106-6.874-3.03-10.213-5.256c-6.013-4.009-13.496-8.998-27.407-8.998
		c-13.911,0-21.394,4.989-27.406,8.998c-5.241,3.494-9.379,6.253-18.344,6.253s-13.105-2.759-18.346-6.253
		c-6.014-4.009-13.497-8.998-27.409-8.998s-21.397,4.989-27.411,8.998c-3.324,2.215-6.207,4.132-10.156,5.241
		C17.203,123.009,124.371,16.34,256,16.34z M256,312.647c-31.235,0-56.647-25.412-56.647-56.647s25.412-56.647,56.647-56.647
		s56.647,25.412,56.647,56.647S287.235,312.647,256,312.647z M256,495.66c-127.089,0-231.372-99.44-239.173-224.598
		c8.62-1.527,14.127-5.181,18.752-8.264c5.242-3.494,9.38-6.253,18.347-6.253c8.964,0,13.105,2.759,18.346,6.253
		c6.014,4.009,13.497,8.998,27.409,8.998s21.395-4.989,27.407-8.998c5.241-3.494,9.379-6.253,18.343-6.253
		c8.964,0,13.103,2.759,18.344,6.253c4.995,3.33,11.018,7.327,20.883,8.589c7.085,32.879,36.374,57.601,71.341,57.601
		s64.256-24.721,71.341-57.601c9.867-1.262,15.889-5.258,20.885-8.589c5.242-3.494,9.38-6.253,18.347-6.253
		c8.964,0,13.105,2.759,18.346,6.253c6.014,4.009,13.497,8.998,27.409,8.998s21.395-4.989,27.407-8.998
		c5.241-3.494,9.379-6.253,18.343-6.253c8.964,0,13.103,2.759,18.344,6.253c4.624,3.083,10.131,6.737,18.75,8.264
		C487.372,396.219,383.089,495.66,256,495.66z"/>
	<path style="fill:#700D00;" d="M87.687,121.897c1.543,1.331,3.441,1.982,5.331,1.982c2.294,0,4.575-0.962,6.192-2.837
		c39.453-45.77,96.601-72.021,156.79-72.021c4.513,0,8.17-3.657,8.17-8.17s-3.657-8.17-8.17-8.17
		c-64.947,0-126.607,28.318-169.167,77.694C83.887,113.793,84.269,118.952,87.687,121.897z"/>
	<path style="fill:#700D00;" d="M43.027,224.281c0.509,0.096,1.015,0.142,1.515,0.142c3.854,0,7.285-2.74,8.02-6.665
		c4.758-25.373,14.158-49.384,27.938-71.367c2.397-3.824,1.241-8.865-2.583-11.262c-3.823-2.396-8.864-1.241-11.262,2.583
		c-14.872,23.723-25.017,49.641-30.154,77.033C35.67,219.18,38.592,223.45,43.027,224.281z"/>
	<path style="fill:#700D00;" d="M459.438,217.758c0.736,3.926,4.166,6.665,8.02,6.665c0.5,0,1.007-0.046,1.515-0.142
		c4.435-0.831,7.356-5.101,6.524-9.536c-5.136-27.392-15.282-53.31-30.154-77.032c-2.397-3.824-7.438-4.977-11.262-2.583
		c-3.824,2.397-4.979,7.439-2.583,11.262C445.28,168.374,454.68,192.385,459.438,217.758z"/>
</g>
<g>
	<path style="fill:#FFFFFF;" d="M93.018,123.88c-1.889,0-3.789-0.651-5.331-1.982c-3.418-2.946-3.8-8.105-0.854-11.522
		C129.393,60.999,191.053,32.681,256,32.681c4.513,0,8.17,3.657,8.17,8.17s-3.657,8.17-8.17,8.17
		c-60.188,0-117.336,26.251-156.791,72.022C97.594,122.918,95.313,123.88,93.018,123.88z"/>
	<path style="fill:#FFFFFF;" d="M44.542,224.423c-0.5,0-1.007-0.046-1.515-0.142c-4.435-0.831-7.356-5.101-6.524-9.536
		c5.136-27.392,15.28-53.31,30.154-77.033c2.398-3.824,7.439-4.978,11.262-2.583c3.824,2.397,4.979,7.438,2.583,11.262
		c-13.779,21.983-23.179,45.994-27.938,71.367C51.825,221.683,48.396,224.423,44.542,224.423z"/>
	<path style="fill:#FFFFFF;" d="M467.458,224.423c-3.854,0-7.285-2.74-8.02-6.665c-4.758-25.373-14.158-49.384-27.938-71.366
		c-2.397-3.823-1.241-8.865,2.583-11.262c3.824-2.394,8.865-1.241,11.262,2.583c14.871,23.722,25.017,49.64,30.154,77.032
		c0.832,4.435-2.089,8.705-6.524,9.536C468.465,224.377,467.958,224.423,467.458,224.423z"/>
</g>
<g>
</g>
<g>
</g>
<g>
</g>
<g>
</g>
<g>
</g>
<g>
</g>
<g>
</g>
<g>
</g>
<g>
</g>
<g>
</g>
<g>
</g>
<g>
</g>
<g>
</g>
<g>
</g>
<g>
</g>
</svg>
