<?xml version="1.0" encoding="iso-8859-1"?>
<!-- Generator: Adobe Illustrator 19.0.0, SVG Export Plug-In . SVG Version: 6.00 Build 0)  -->
<svg version="1.1" id="Layer_1" xmlns="http://www.w3.org/2000/svg" xmlns:xlink="http://www.w3.org/1999/xlink" x="0px" y="0px"
	 viewBox="0 0 512 512" style="enable-background:new 0 0 512 512;" xml:space="preserve">
<path style="fill:#C8FEFF;" d="M411.234,77.268l-57.889,394.229c-2.614,17.778-19.456,32.332-37.43,32.332h-119.83
	c-17.974,0-34.816-14.554-37.43-32.332L100.766,77.268h32.866l9.652,65.383l41.276,279.432
	c10.403,22.964,132.477,22.964,142.881,0.011l41.276-279.443l9.652-65.383L411.234,77.268L411.234,77.268z"/>
<path style="fill:#F9EBDB;" d="M378.368,77.268l-9.652,65.383l-0.153-0.022c-28.138,0-28.138,15.251-56.287,15.251
	c-28.138,0-28.138-15.251-56.287-15.251c-28.138,0-28.138,15.251-56.276,15.251s-28.138-15.251-56.276-15.251l-0.153,0.022
	l-9.652-65.383C133.632,77.268,378.368,77.268,378.368,77.268z"/>
<path style="fill:#FFFFFF;" d="M378.368,77.268H133.632c0-25.567,20.545-46.298,46.113-46.298c12.092,0,23.094,4.641,31.341,12.234
	C216.119,23.084,234.322,8.17,256,8.17s39.882,14.913,44.914,35.034c8.246-7.593,19.249-12.234,31.341-12.234
	C357.823,30.971,378.368,51.701,378.368,77.268z"/>
<path style="fill:#D2BA9C;" d="M368.716,142.652l-41.276,279.443c-10.403,22.953-132.477,22.953-142.881-0.011l-41.276-279.432
	l0.152-0.022c28.138,0,28.138,15.251,56.276,15.251s28.138-15.251,56.276-15.251c28.149,0,28.149,15.251,56.287,15.251
	c28.149,0,28.149-15.251,56.287-15.251L368.716,142.652z"/>
<path style="fill:#700D00;" d="M417.417,71.926c-1.552-1.795-3.808-2.829-6.183-2.829h-25.307
	c-3.941-26.171-26.507-46.296-53.672-46.296c-9.746,0-19.19,2.587-27.458,7.423C295.765,11.984,277.053,0,256,0
	s-39.765,11.984-48.797,30.224c-8.268-4.836-17.712-7.423-27.458-7.423c-27.164,0-49.73,20.126-53.672,46.297h-25.307
	c-2.375,0-4.631,1.033-6.183,2.829c-1.552,1.796-2.246,4.18-1.9,6.529l57.891,394.228c3.183,21.679,23.6,39.316,45.511,39.316
	h119.83c21.911,0,42.328-17.637,45.511-39.317l57.891-394.227C419.663,76.106,418.97,73.724,417.417,71.926z M361.591,134.783
	c-11.749,1.097-18.769,4.879-25.06,8.289c-6.573,3.562-12.251,6.639-24.251,6.639s-17.678-3.076-24.251-6.639
	c-7.449-4.037-15.893-8.612-32.036-8.612c-16.141,0-24.584,4.575-32.033,8.612c-6.571,3.562-12.248,6.639-24.246,6.639
	c-11.999,0-17.675-3.076-24.248-6.639c-6.294-3.412-13.32-7.197-25.083-8.291l-7.287-49.343h225.804L361.591,134.783z
	 M179.745,39.142c9.589,0,18.756,3.577,25.811,10.072c2.119,1.953,5.109,2.643,7.876,1.816c2.762-0.827,4.883-3.048,5.583-5.844
	C223.262,28.202,238.47,16.34,256,16.34s32.739,11.862,36.984,28.845c0.7,2.796,2.821,5.018,5.583,5.844
	c2.763,0.826,5.755,0.137,7.876-1.816c7.057-6.495,16.224-10.072,25.811-10.072c18.132,0,33.333,12.846,37.066,29.956H142.678
	C146.413,51.988,161.614,39.142,179.745,39.142z M345.26,470.309c-2.017,13.741-15.457,25.351-29.345,25.351h-119.83
	c-13.888,0-27.328-11.609-29.345-25.351l-56.516-384.87h16.355l49.894,337.843c0.112,0.752,0.328,1.486,0.642,2.179
	c9.26,20.433,62.728,22.021,78.895,22.021c16.163,0,69.619-1.587,78.876-22.017c0.315-0.695,0.531-1.429,0.642-2.183l18.183-123.565
	c0.658-4.464-2.429-8.616-6.893-9.273c-4.459-0.656-8.615,2.429-9.273,6.893l-17.955,122.019
	c-3.606,4.337-24.816,11.784-63.579,11.784c-38.779,0-59.997-7.451-63.598-11.789l-39.545-267.76
	c6.115,1.137,10.251,3.374,14.814,5.847c7.448,4.037,15.892,8.612,32.033,8.612s24.584-4.575,32.033-8.612
	c6.571-3.562,12.248-6.639,24.246-6.639c12,0,17.678,3.076,24.251,6.639c7.449,4.037,15.893,8.612,32.036,8.612
	s24.586-4.575,32.036-8.612c4.556-2.469,8.685-4.702,14.784-5.841l-16.798,113.401c-0.661,4.463,2.422,8.618,6.885,9.279
	c4.448,0.663,8.617-2.421,9.279-6.885l26.954-181.954h16.358L345.26,470.309z"/>
<g>
</g>
<g>
</g>
<g>
</g>
<g>
</g>
<g>
</g>
<g>
</g>
<g>
</g>
<g>
</g>
<g>
</g>
<g>
</g>
<g>
</g>
<g>
</g>
<g>
</g>
<g>
</g>
<g>
</g>
</svg>
