<?xml version="1.0" encoding="iso-8859-1"?>
<!-- Generator: Adobe Illustrator 19.0.0, SVG Export Plug-In . SVG Version: 6.00 Build 0)  -->
<svg version="1.1" id="Layer_1" xmlns="http://www.w3.org/2000/svg" xmlns:xlink="http://www.w3.org/1999/xlink" x="0px" y="0px"
	 viewBox="0 0 512 512" style="enable-background:new 0 0 512 512;" xml:space="preserve">
<path style="fill:#F7CD95;" d="M501.339,91.766c6.449,15.585-0.944,33.434-16.517,39.883c-7.06,2.93-145.747,52.416-158.057,56.245
	c-3.053,6.971-8.691,12.832-16.284,15.973c-9.901,4.096-20.713,2.597-28.938-3.03l-54.669,22.645l-5.95-33.578l47.876-19.836
	c1.832-9.79,8.414-18.504,18.315-22.6c7.593-3.152,15.718-2.997,22.811-0.222c11.411-5.994,144.481-69.077,151.53-71.997
	C477.029,68.8,494.889,76.193,501.339,91.766z"/>
<path style="fill:#FC9851;" d="M254.379,378.953l-39.45-222.938H48.691L9.251,378.953c-5.85,33.068,16.828,60.119,50.406,60.119
	h144.304C237.54,439.072,260.229,412.022,254.379,378.953z"/>
<g>
	<path style="fill:#F7CD95;" d="M154.01,89.413c0,12.266-9.935,22.201-22.201,22.201c-12.255,0-22.201-9.935-22.201-22.201H36.913
		l11.777,66.602h166.238l11.789-66.602H154.01z"/>
	<circle style="fill:#F7CD95;" cx="98.787" cy="388.566" r="8.325"/>
	<circle style="fill:#F7CD95;" cx="65.487" cy="355.265" r="8.325"/>
</g>
<path style="fill:#700D00;" d="M509.042,88.585c-8.199-19.792-30.97-29.223-50.761-21.026c-7.889,3.268-126.094,59.4-148.996,70.701
	c-8.365-2.357-17.23-1.848-25.345,1.513c-10.712,4.438-18.751,13.301-22.18,24.206l-34.433,14.263l-3.933-22.227l11.529-65.151
	c0.428-2.424-0.238-4.914-1.819-6.8c-1.583-1.886-3.917-2.976-6.379-2.976h-72.7c-4.599,0-8.325,3.727-8.325,8.325
	c0,7.651-6.224,13.875-13.875,13.875s-13.875-6.224-13.875-13.875c0-4.598-3.726-8.325-8.325-8.325H36.921
	c-2.462,0-4.796,1.089-6.379,2.976c-1.582,1.887-2.247,4.376-1.819,6.8l11.53,65.151L1.058,377.505
	c-3.265,18.458,1.082,35.952,12.24,49.258c11.158,13.306,27.628,20.635,46.371,20.635h144.304c18.745,0,35.213-7.328,46.371-20.635
	c11.159-13.307,15.506-30.801,12.239-49.258l-26.345-148.888l44.635-18.489c10.136,5.286,22.086,5.87,32.8,1.433
	c8.115-3.361,14.743-9.272,18.991-16.852c24.185-8.203,147.46-52.095,155.349-55.363C507.808,131.149,517.24,108.378,509.042,88.585
	z M237.589,416.064c-7.94,9.47-19.878,14.685-33.614,14.685H59.671c-13.736,0-25.673-5.215-33.614-14.683
	c-7.94-9.47-10.995-22.133-8.602-35.659L55.688,164.34h26.319c4.599,0,8.325-3.727,8.325-8.325c0-4.598-3.726-8.325-8.325-8.325
	H55.688l-8.84-49.951h55.602c3.632,12.799,15.425,22.201,29.372,22.201s25.739-9.402,29.372-22.201h55.601l-8.839,49.951h-92.65
	c-4.599,0-8.325,3.727-8.325,8.325c0,4.598,3.726,8.325,8.325,8.325h92.65l4.798,27.115c0.004,0.024,5.943,33.585,5.943,33.585
	c0.003,0.021,27.492,155.365,27.492,155.365C248.585,393.931,245.53,406.594,237.589,416.064z M481.646,123.964
	c-5.347,2.216-143.269,51.605-157.346,55.979c-2.308,0.717-4.189,2.402-5.157,4.616c-2.311,5.288-6.516,9.415-11.837,11.62
	c-6.954,2.881-14.824,2.055-21.056-2.209c-2.321-1.588-5.287-1.896-7.887-0.821l-45.092,18.677l-2.972-16.791l41.69-17.269
	c2.599-1.077,4.478-3.392,4.996-6.157c1.392-7.421,6.374-13.57,13.327-16.451c5.322-2.205,11.212-2.259,16.586-0.154
	c2.251,0.881,4.773,0.742,6.912-0.384c13.045-6.861,145.494-69.461,150.843-71.677c11.308-4.685,24.321,0.704,29.007,12.014
	C498.345,106.267,492.954,119.279,481.646,123.964z"/>
<g>
</g>
<g>
</g>
<g>
</g>
<g>
</g>
<g>
</g>
<g>
</g>
<g>
</g>
<g>
</g>
<g>
</g>
<g>
</g>
<g>
</g>
<g>
</g>
<g>
</g>
<g>
</g>
<g>
</g>
</svg>
