<?xml version="1.0" encoding="iso-8859-1"?>
<!-- Generator: Adobe Illustrator 19.0.0, SVG Export Plug-In . SVG Version: 6.00 Build 0)  -->
<svg version="1.1" id="Layer_1" xmlns="http://www.w3.org/2000/svg" xmlns:xlink="http://www.w3.org/1999/xlink" x="0px" y="0px"
	 viewBox="0 0 512 512" style="enable-background:new 0 0 512 512;" xml:space="preserve">
<path style="fill:#F9EBDB;" d="M394.266,432.255c3.251,38.579-25.754,70.144-64.474,70.144H92.992
	c-38.72,0-67.738-31.565-64.474-70.144L57.741,86.398l-35.149-76.8l339.201,38.4l29.222,345.857L394.266,432.255z"/>
<path style="fill:#700D00;" d="M488.042,52.807c-8.316-9.292-20.046-14.409-33.029-14.409h-92.685L23.666,0.06
	c-3.437-0.384-6.822,1.103-8.854,3.905c-2.031,2.803-2.396,6.482-0.955,9.629l34.106,74.508L18.948,431.441
	c-1.805,21.368,4.94,41.558,18.991,56.849C51.992,503.58,71.542,512,92.987,512h236.801c21.445,0,40.995-8.421,55.048-23.711
	c14.052-15.29,20.796-35.479,18.99-56.848l-2.367-27.992h21.555c22.383,0,42.92-20.952,45.779-46.706l29.925-269.52
	C500.149,74.322,496.359,62.099,488.042,52.807z M370.698,475.297c-10.373,11.287-24.901,17.503-40.91,17.503H92.987
	c-16.009,0-30.537-6.216-40.91-17.503c-10.373-11.287-15.343-26.287-13.997-42.24L67.307,87.207c0.138-1.647-0.15-3.302-0.837-4.804
	L38.386,21.049l314.499,35.603l28.556,337.917c0.005,0.067,0.012,0.134,0.018,0.201l3.235,38.29
	C386.041,449.009,381.071,464.011,370.698,475.297z M479.635,85.106L449.71,354.624c-1.783,16.059-14.007,29.626-26.696,29.626
	h-23.177L372.232,57.598h82.782c7.447,0,14.098,2.847,18.723,8.014C478.362,70.781,480.458,77.703,479.635,85.106z"/>
<g>
	<path style="fill:#FFFFFF;" d="M343.231,446.161c-4.936,0-9.132-3.784-9.555-8.792L304.74,94.959
		c-0.447-5.283,3.475-9.928,8.758-10.373c5.271-0.46,9.928,3.474,10.374,8.758l28.936,342.41c0.447,5.283-3.475,9.928-8.758,10.373
		C343.776,446.15,343.503,446.161,343.231,446.161z"/>
	<path style="fill:#FFFFFF;" d="M79.909,441.852c-0.271,0-0.545-0.012-0.82-0.035c-5.283-0.447-9.203-5.092-8.758-10.374
		l5.452-64.494c0.448-5.283,5.103-9.212,10.374-8.757c5.283,0.447,9.203,5.092,8.758,10.374l-5.452,64.494
		C89.04,438.068,84.845,441.852,79.909,441.852z"/>
	<path style="fill:#FFFFFF;" d="M88.605,338.957c-0.271,0-0.545-0.012-0.82-0.035c-5.283-0.447-9.203-5.091-8.758-10.373
		l17.286-204.557c0.448-5.284,5.108-9.21,10.374-8.758c5.283,0.447,9.203,5.091,8.758,10.373L98.159,330.165
		C97.737,335.172,93.541,338.957,88.605,338.957z"/>
</g>
<g>
</g>
<g>
</g>
<g>
</g>
<g>
</g>
<g>
</g>
<g>
</g>
<g>
</g>
<g>
</g>
<g>
</g>
<g>
</g>
<g>
</g>
<g>
</g>
<g>
</g>
<g>
</g>
<g>
</g>
</svg>
