<?xml version="1.0" encoding="iso-8859-1"?>
<!-- Generator: Adobe Illustrator 19.0.0, SVG Export Plug-In . SVG Version: 6.00 Build 0)  -->
<svg version="1.1" id="Layer_1" xmlns="http://www.w3.org/2000/svg" xmlns:xlink="http://www.w3.org/1999/xlink" x="0px" y="0px"
	 viewBox="0 0 512.001 512.001" style="enable-background:new 0 0 512.001 512.001;" xml:space="preserve">
<g>
	<rect x="171.575" y="280.511" style="fill:#3C95AB;" width="136.17" height="32.681"/>
	<polygon style="fill:#3C95AB;" points="256,51.745 223.319,51.745 128,89.872 351.319,89.872 	"/>
</g>
<polygon style="fill:#296B94;" points="266.894,8.17 256,51.745 223.319,51.745 212.426,8.17 "/>
<g>
	<polygon style="fill:#51C0C2;" points="265.99,313.191 276.883,503.83 202.436,503.83 213.33,313.191 	"/>
	<polygon style="fill:#51C0C2;" points="276.883,89.872 265.99,280.511 213.33,280.511 202.436,89.872 	"/>
</g>
<g>
	<polygon style="fill:#98E1E2;" points="276.883,89.872 265.99,280.511 318.638,280.511 351.319,89.872 	"/>
	<polygon style="fill:#98E1E2;" points="202.436,89.872 95.319,89.872 135.473,133.447 160.681,280.511 213.33,280.511 	"/>
	<polygon style="fill:#98E1E2;" points="318.638,313.191 265.99,313.191 276.883,503.83 351.319,503.83 	"/>
	<polygon style="fill:#98E1E2;" points="160.681,313.191 128,503.83 202.436,503.83 213.33,313.191 	"/>
</g>
<path style="fill:#700D00;" d="M422.926,84.606c-1.551-1.842-3.837-2.904-6.245-2.904h-63.789l-87.236-34.894l9.164-36.656
	c0.61-2.44,0.062-5.026-1.487-7.01C271.785,1.159,269.409,0,266.894,0h-54.468c-2.516,0-4.891,1.159-6.44,3.142
	c-1.549,1.983-2.097,4.569-1.486,7.01l9.164,36.656l-87.236,34.894H95.319c-3.244,0-6.18,1.919-7.483,4.89
	c-1.302,2.972-0.723,6.43,1.475,8.816l38.514,41.799l24.804,144.684c0.672,3.923,4.073,6.79,8.053,6.79h2.723v16.34h-2.723
	c-3.979,0-7.38,2.867-8.053,6.79L119.949,502.45c-0.407,2.374,0.254,4.806,1.806,6.647c1.552,1.841,3.838,2.904,6.246,2.904H351.32
	c4.534,0,8.192-3.658,8.192-8.17c0-0.685-0.084-1.35-0.243-1.986l-32.576-190.033c-0.672-3.923-4.073-6.79-8.054-6.79h-2.724v-16.34
	h2.723c3.979,0,7.379-2.867,8.054-6.79l31.515-183.849h48.783L377.111,272.34h-9.451c-4.513,0-8.17,3.658-8.17,8.17
	c0,4.512,3.657,8.17,8.17,8.17H384c3.979,0,7.379-2.867,8.054-6.79l32.681-190.638C425.141,88.879,424.48,86.446,422.926,84.606z
	 M256.429,16.34l-6.809,27.234h-19.923l-6.809-27.234H256.429z M224.892,59.915h29.534l54.468,21.787h-138.47L224.892,59.915z
	 M221.05,272.34l-9.96-174.298h57.139l-9.96,174.298H221.05z M143.522,132.067c-0.267-1.553-0.976-2.997-2.044-4.156l-27.522-29.868
	h13.862c0.025,0,0.051,0,0.076,0h66.827l9.96,174.298h-37.113L143.522,132.067z M167.57,321.362h37.113l-4.021,70.369
	c-0.257,4.505,3.185,8.365,7.691,8.623c0.159,0.009,0.316,0.013,0.474,0.013c4.299,0,7.901-3.359,8.15-7.704l4.074-71.301h37.22
	l9.96,174.298h-57.139l4.021-70.369c0.257-4.505-3.185-8.365-7.691-8.623c-4.495-0.253-8.365,3.185-8.623,7.691l-4.075,71.301
	H137.69L167.57,321.362z M341.628,495.66h-57.032l-9.96-174.298h37.113L341.628,495.66z M299.575,305.021h-119.83v-16.34h119.83
	V305.021z M311.75,272.34h-37.113l9.96-174.298h57.032L311.75,272.34z"/>
<g>
</g>
<g>
</g>
<g>
</g>
<g>
</g>
<g>
</g>
<g>
</g>
<g>
</g>
<g>
</g>
<g>
</g>
<g>
</g>
<g>
</g>
<g>
</g>
<g>
</g>
<g>
</g>
<g>
</g>
</svg>
