<?xml version="1.0" encoding="iso-8859-1"?>
<!-- Generator: Adobe Illustrator 19.0.0, SVG Export Plug-In . SVG Version: 6.00 Build 0)  -->
<svg version="1.1" id="Layer_1" xmlns="http://www.w3.org/2000/svg" xmlns:xlink="http://www.w3.org/1999/xlink" x="0px" y="0px"
	 viewBox="0 0 512 512" style="enable-background:new 0 0 512 512;" xml:space="preserve">
<path style="fill:#C8FEFF;" d="M57.509,188.668C10.181,141.339-9.22,63.235,26.998,27.016
	C63.211-9.196,141.316,10.203,188.645,57.533c40.737,40.737,48.296,93.581,26.757,130.389l271.129,229.965
	c1.022,0.866,2.018,1.773,2.982,2.737c19.03,19.03,19.03,49.883,0,68.913c-19.03,19.03-49.883,19.03-68.913,0
	c-0.964-0.964-1.871-1.96-2.738-2.982L187.895,215.421C151.089,236.957,98.245,229.404,57.509,188.668z"/>
<path style="fill:#74D1D2;" d="M454.49,188.668c47.329-47.33,66.73-125.433,30.512-161.651
	C448.789-9.196,370.684,10.203,323.355,57.533c-40.737,40.737-48.296,93.581-26.757,130.389L25.468,417.886
	c-1.022,0.866-2.018,1.773-2.982,2.737c-19.03,19.03-19.03,49.883,0,68.913c19.03,19.03,49.883,19.03,68.913,0
	c0.964-0.964,1.871-1.961,2.738-2.982l229.967-271.132C360.912,236.957,413.754,229.404,454.49,188.668z"/>
<g>
	<path style="fill:#700D00;" d="M368.912,235.348c32.533,0,64.978-14.528,91.355-40.904c24.284-24.285,42.074-56.762,48.807-89.104
		c7.313-35.124,0.815-64.991-18.295-84.101C476.927,7.388,457.1,0.067,433.443,0.067c-38.986,0-84.465,20.289-115.866,51.689
		c-20.687,20.688-34.167,45.219-38.985,70.941c-4.172,22.275-1.431,44.464,7.697,63.256L20.187,411.654
		c-1.256,1.065-2.394,2.11-3.477,3.193c-22.184,22.184-22.184,58.281,0,80.466c10.747,10.746,25.035,16.664,40.233,16.664
		s29.486-5.919,40.235-16.668c1.09-1.091,2.133-2.228,3.188-3.472l225.707-266.109C339.054,232.038,353.724,235.347,368.912,235.348
		z M317.875,210.136L87.905,481.273c-0.766,0.903-1.513,1.718-2.282,2.487c-7.661,7.661-17.846,11.88-28.68,11.88
		s-21.02-4.218-28.681-11.88c-15.815-15.815-15.815-41.546,0.001-57.361c0.764-0.764,1.577-1.511,2.489-2.283L301.881,194.15
		c3.024-2.565,3.77-6.933,1.766-10.356c-20.977-35.848-10.735-84.267,25.483-120.486c28.493-28.494,69.438-46.904,104.312-46.904
		c19.229,0,35.061,5.667,45.782,16.389c15.086,15.085,20.006,39.666,13.854,69.218c-6.102,29.307-22.271,58.788-44.364,80.881
		c-23.294,23.294-51.634,36.12-79.802,36.119c-14.721-0.001-28.788-3.68-40.683-10.641
		C324.808,206.368,320.441,207.114,317.875,210.136z"/>
	<path style="fill:#700D00;" d="M51.733,194.445c20.686,20.684,45.216,34.164,70.939,38.98c22.271,4.169,44.461,1.43,63.252-7.697
		l6.52,7.688c1.615,1.905,3.918,2.884,6.234,2.884c1.867,0,3.745-0.636,5.279-1.939c3.441-2.918,3.864-8.073,0.946-11.514
		l-10.78-12.711c-2.564-3.024-6.93-3.77-10.355-1.767c-35.849,20.977-84.268,10.736-120.484-25.479
		c-22.094-22.093-38.264-51.574-44.365-80.882c-6.152-29.55-1.232-54.132,13.853-69.218c15.084-15.083,39.664-19.998,69.213-13.85
		c29.308,6.103,58.788,22.272,80.881,44.366c36.219,36.219,46.46,84.638,25.482,120.485c-2.003,3.423-1.258,7.79,1.767,10.356
		l15.341,13.012c3.441,2.919,8.596,2.494,11.514-0.945c2.918-3.441,2.495-8.596-0.945-11.514l-10.318-8.75
		c9.129-18.79,11.869-40.98,7.697-63.255c-4.817-25.722-18.298-50.253-38.985-70.941C170.137,27.472,137.66,9.682,105.318,2.949
		C70.197-4.363,40.33,2.132,21.223,21.239C2.112,40.349-4.386,70.216,2.927,105.34C9.659,137.683,27.448,170.159,51.733,194.445z"/>
	<path style="fill:#700D00;" d="M491.816,411.657L322.391,267.955c-3.442-2.921-8.597-2.494-11.514,0.945
		c-2.919,3.441-2.494,8.596,0.945,11.514l169.426,143.703c0.911,0.771,1.724,1.518,2.488,2.283c15.816,15.815,15.816,41.546,0,57.36
		c-15.811,15.815-41.545,15.816-57.356,0.003c-0.766-0.766-1.515-1.583-2.288-2.493l-140.44-165.581
		c-2.917-3.439-8.072-3.863-11.514-0.945c-3.44,2.919-3.864,8.073-0.945,11.514l140.442,165.582
		c1.064,1.253,2.106,2.387,3.189,3.472c11.093,11.092,25.663,16.637,40.232,16.637c14.571,0,29.141-5.546,40.233-16.637
		c22.184-22.185,22.184-58.283,0-80.467C494.205,413.763,493.068,412.719,491.816,411.657z"/>
</g>
<g>
	<path style="fill:#FFFFFF;" d="M455.057,479.291c-6.203,0-12.406-2.361-17.128-7.083c-0.448-0.45-0.907-0.953-1.378-1.506
		c-2.918-3.441-2.495-8.596,0.945-11.514c3.443-2.917,8.597-2.493,11.514,0.945c0.174,0.205,0.335,0.386,0.48,0.533
		c3.064,3.063,8.066,3.064,11.14-0.012c1.485-1.483,2.303-3.465,2.303-5.575c0-2.111-0.818-4.091-2.303-5.574
		c-0.145-0.145-0.322-0.303-0.523-0.474c-3.441-2.919-3.864-8.073-0.945-11.514c2.918-3.44,8.072-3.862,11.514-0.945
		c0.56,0.476,1.066,0.939,1.509,1.38c9.444,9.445,9.444,24.811,0,34.257C467.463,476.929,461.26,479.291,455.057,479.291z"/>
	<path style="fill:#FFFFFF;" d="M56.941,479.29c-6.203,0-12.405-2.361-17.126-7.082c-9.444-9.444-9.444-24.811,0-34.255
		c0.441-0.441,0.949-0.905,1.508-1.381c3.441-2.917,8.596-2.493,11.514,0.945c2.918,3.441,2.495,8.596-0.945,11.514
		c-0.201,0.17-0.379,0.329-0.524,0.474c-3.074,3.074-3.074,8.076,0,11.15c3.075,3.075,8.077,3.073,11.151,0
		c0.141-0.14,0.301-0.321,0.475-0.526c2.921-3.435,8.076-3.858,11.515-0.936c3.439,2.921,3.858,8.076,0.937,11.515
		c-0.475,0.559-0.935,1.062-1.368,1.494C69.351,476.927,63.145,479.29,56.941,479.29z M381.8,201.45c-3.855,0-7.284-2.74-8.02-6.666
		c-0.831-4.434,2.091-8.702,6.525-9.534c15.969-2.99,31.635-11.796,45.303-25.465c3.191-3.189,8.363-3.189,11.553,0
		c3.19,3.191,3.19,8.363,0,11.553c-16.008,16.006-34.628,26.371-53.847,29.971C382.805,201.404,382.298,201.45,381.8,201.45z
		 M324.807,179.587c-2.806,0-5.538-1.447-7.058-4.044c-7.723-13.2-10.223-29.831-7.039-46.832
		c3.6-19.219,13.964-37.841,29.974-53.851c19.611-19.608,46.772-34.533,72.66-39.922c16.34-3.399,30.821-2.9,41.875,1.448
		c4.198,1.651,6.264,6.393,4.612,10.592c-1.651,4.198-6.392,6.263-10.592,4.612c-7.971-3.136-19.538-3.37-32.566-0.657
		c-22.897,4.767-46.986,18.031-64.436,35.481c-13.67,13.67-22.476,29.337-25.467,45.306c-2.46,13.135-0.656,25.769,5.082,35.572
		c2.279,3.894,0.968,8.899-2.926,11.177C327.629,179.227,326.208,179.587,324.807,179.587z"/>
	<path style="fill:#FFFFFF;" d="M142.982,202.66c-4.689,0-9.475-0.445-14.292-1.347c-19.221-3.601-37.842-13.964-53.851-29.974
		c-19.608-19.608-34.532-46.77-39.922-72.66c-3.401-16.339-2.902-30.819,1.448-41.875c1.652-4.198,6.396-6.262,10.592-4.612
		c4.198,1.651,6.263,6.393,4.612,10.592c-3.135,7.972-3.369,19.538-0.656,32.566c4.767,22.899,18.031,46.988,35.48,64.435
		c13.67,13.671,29.337,22.477,45.306,25.468c13.135,2.46,25.769,0.657,35.574-5.081c3.893-2.279,8.896-0.969,11.176,2.927
		c2.279,3.894,0.968,8.897-2.927,11.176C166.062,199.809,154.839,202.66,142.982,202.66z M193.248,138.382
		c-3.855,0-7.284-2.74-8.021-6.666c-2.991-15.969-11.796-31.635-25.464-45.303c-3.19-3.19-3.19-8.363,0-11.552
		c3.19-3.191,8.363-3.19,11.552-0.001c16.008,16.008,26.371,34.628,29.971,53.847c0.83,4.434-2.091,8.702-6.526,9.534
		C194.252,138.336,193.747,138.382,193.248,138.382z"/>
</g>
<g>
</g>
<g>
</g>
<g>
</g>
<g>
</g>
<g>
</g>
<g>
</g>
<g>
</g>
<g>
</g>
<g>
</g>
<g>
</g>
<g>
</g>
<g>
</g>
<g>
</g>
<g>
</g>
<g>
</g>
</svg>
