<?xml version="1.0" encoding="iso-8859-1"?>
<!-- Generator: Adobe Illustrator 19.0.0, SVG Export Plug-In . SVG Version: 6.00 Build 0)  -->
<svg version="1.1" id="Layer_1" xmlns="http://www.w3.org/2000/svg" xmlns:xlink="http://www.w3.org/1999/xlink" x="0px" y="0px"
	 viewBox="0 0 512 512" style="enable-background:new 0 0 512 512;" xml:space="preserve">
<g>
	<polygon style="fill:#74D1D2;" points="392.17,433.021 392.17,503.829 346.776,482.042 301.383,503.829 255.989,482.042 
		210.606,503.829 165.213,482.042 119.83,503.829 119.83,433.021 	"/>
	<polygon style="fill:#74D1D2;" points="392.17,8.17 392.17,78.978 119.83,78.978 119.83,8.17 165.213,29.957 210.606,8.17 
		255.989,29.957 301.383,8.17 346.776,29.957 	"/>
</g>
<rect x="119.83" y="78.978" style="fill:#C8FEFF;" width="272.34" height="354.043"/>
<g>
	<path style="fill:#74D1D2;" d="M305.87,216.308c-3.345,0-6.484-2.07-7.685-5.398c-4.515-12.504-20.679-20.272-42.184-20.272
		c-6.476,0-12.566,0.715-18.099,2.123c-4.374,1.116-8.821-1.529-9.934-5.901c-1.113-4.373,1.528-8.821,5.901-9.934
		c6.85-1.744,14.296-2.629,22.131-2.629c28.582,0,50.635,11.902,57.553,31.062c1.533,4.244-0.666,8.927-4.91,10.46
		C307.727,216.151,306.79,216.308,305.87,216.308z"/>
	<path style="fill:#74D1D2;" d="M256,337.702c-28.594,0-50.649-11.91-57.56-31.081c-1.531-4.244,0.67-8.926,4.915-10.457
		c4.246-1.529,8.926,0.671,10.457,4.915c4.51,12.51,20.676,20.282,42.188,20.282c20.101,0,43.574-7.493,43.574-28.61
		c0-19.224-14.382-23.69-44.908-28.701c-26.099-4.284-58.582-9.617-58.582-44.802c0-8.677,2.452-16.495,7.29-23.239
		c2.63-3.667,7.734-4.507,11.401-1.878c3.667,2.631,4.508,7.734,1.877,11.401c-2.805,3.912-4.228,8.526-4.228,13.716
		c0,19.205,14.375,23.669,44.889,28.677c26.108,4.287,58.6,9.621,58.6,44.826C315.915,319.638,291.837,337.702,256,337.702z"/>
</g>
<path style="fill:#700D00;" d="M396.521,1.256c-2.377-1.497-5.356-1.666-7.886-0.451l-41.859,20.09l-41.86-20.09
	c-2.235-1.072-4.836-1.073-7.071,0l-41.852,20.09l-41.854-20.09c-2.235-1.073-4.836-1.073-7.071,0l-41.851,20.09l-41.851-20.09
	c-2.532-1.216-5.511-1.045-7.887,0.45c-2.377,1.496-3.819,4.108-3.819,6.915v495.66c0,2.808,1.442,5.42,3.819,6.915
	c2.377,1.495,5.356,1.665,7.887,0.45l41.851-20.09l41.851,20.09c2.235,1.073,4.836,1.073,7.071,0l41.854-20.09l41.852,20.09
	c1.118,0.537,2.327,0.805,3.536,0.805c1.209,0,2.418-0.268,3.535-0.804l41.86-20.09l41.859,20.09
	c2.532,1.215,5.51,1.045,7.886-0.451c2.377-1.496,3.819-4.107,3.819-6.915V8.17C400.34,5.363,398.899,2.75,396.521,1.256z
	 M350.311,474.677c-2.234-1.072-4.835-1.072-7.07,0l-41.859,20.09l-41.852-20.09c-1.118-0.537-2.327-0.805-3.536-0.805
	c-1.209,0-2.418,0.268-3.536,0.805l-41.854,20.09l-41.851-20.09c-2.235-1.073-4.836-1.073-7.071,0L128,490.845v-49.654h231.489
	c4.512,0,8.17-3.658,8.17-8.17c0-4.512-3.658-8.17-8.17-8.17H128V21.155l33.681,16.168c2.235,1.073,4.836,1.073,7.071,0
	l41.851-20.09l41.854,20.09c2.235,1.073,4.836,1.073,7.071,0l41.852-20.09l41.859,20.09c2.235,1.072,4.836,1.072,7.07,0L384,21.154
	v49.654H152.511c-4.512,0-8.17,3.658-8.17,8.17c0,4.512,3.658,8.17,8.17,8.17H384v403.697L350.311,474.677z"/>
<g>
</g>
<g>
</g>
<g>
</g>
<g>
</g>
<g>
</g>
<g>
</g>
<g>
</g>
<g>
</g>
<g>
</g>
<g>
</g>
<g>
</g>
<g>
</g>
<g>
</g>
<g>
</g>
<g>
</g>
</svg>
