<?xml version="1.0" encoding="iso-8859-1"?>
<!-- Generator: Adobe Illustrator 19.0.0, SVG Export Plug-In . SVG Version: 6.00 Build 0)  -->
<svg version="1.1" id="Layer_1" xmlns="http://www.w3.org/2000/svg" xmlns:xlink="http://www.w3.org/1999/xlink" x="0px" y="0px"
	 viewBox="0 0 512 512" style="enable-background:new 0 0 512 512;" xml:space="preserve">
<rect x="9.253" y="9.253" style="fill:#F9EBDB;" width="493.494" height="493.494"/>
<g>
	<circle style="fill:#FFFFFF;" cx="102.4" cy="385.135" r="9.253"/>
	<circle style="fill:#FFFFFF;" cx="65.388" cy="348.123" r="9.253"/>
	<circle style="fill:#FFFFFF;" cx="310.901" cy="446.612" r="9.253"/>
	<circle style="fill:#FFFFFF;" cx="409.6" cy="234.249" r="9.253"/>
	<circle style="fill:#FFFFFF;" cx="446.612" cy="271.261" r="9.253"/>
	<circle style="fill:#FFFFFF;" cx="409.6" cy="115.65" r="9.253"/>
</g>
<g>
	<path style="fill:#700D00;" d="M46.265,493.494H18.506V18.506h93.147c5.11,0,9.253-4.143,9.253-9.253S116.763,0,111.653,0H9.253
		C4.143,0,0,4.143,0,9.253v493.494C0,507.857,4.143,512,9.253,512h37.012c5.11,0,9.253-4.143,9.253-9.253
		C55.518,497.637,51.375,493.494,46.265,493.494z"/>
	<path style="fill:#700D00;" d="M502.747,391.094c-5.111,0-9.253,4.143-9.253,9.253v93.147H83.277c-5.11,0-9.253,4.143-9.253,9.253
		c0,5.11,4.143,9.253,9.253,9.253h419.47c5.111,0,9.253-4.143,9.253-9.253v-102.4C512,395.237,507.858,391.094,502.747,391.094z"/>
	<path style="fill:#700D00;" d="M502.747,0H148.665c-5.11,0-9.253,4.143-9.253,9.253s4.143,9.253,9.253,9.253h344.829v344.829
		c0,5.11,4.142,9.253,9.253,9.253c5.111,0,9.253-4.143,9.253-9.253V9.253C512,4.143,507.858,0,502.747,0z"/>
</g>
<g>
</g>
<g>
</g>
<g>
</g>
<g>
</g>
<g>
</g>
<g>
</g>
<g>
</g>
<g>
</g>
<g>
</g>
<g>
</g>
<g>
</g>
<g>
</g>
<g>
</g>
<g>
</g>
<g>
</g>
</svg>
