<?xml version="1.0" encoding="iso-8859-1"?>
<!-- Generator: Adobe Illustrator 19.0.0, SVG Export Plug-In . SVG Version: 6.00 Build 0)  -->
<svg version="1.1" id="Layer_1" xmlns="http://www.w3.org/2000/svg" xmlns:xlink="http://www.w3.org/1999/xlink" x="0px" y="0px"
	 viewBox="0 0 512 512" style="enable-background:new 0 0 512 512;" xml:space="preserve">
<rect x="177.021" y="128" style="fill:#74D1D2;" width="157.957" height="32.681"/>
<g>
	<rect x="177.021" y="160.681" style="fill:#3C95AB;" width="157.957" height="32.681"/>
	<path style="fill:#3C95AB;" d="M277.787,83.554c-6.917-1.166-14.227-1.787-21.787-1.787c-7.56,0-14.87,0.621-21.787,1.787
		c-33.019,5.534-57.191,23.334-57.191,44.446h157.957C334.979,106.889,310.806,89.088,277.787,83.554z"/>
</g>
<g>
	<path style="fill:#74D1D2;" d="M234.213,8.171v75.384c6.917-1.166,14.227-1.787,21.787-1.787c7.56,0,14.87,0.621,21.787,1.787
		V29.958L234.213,8.171z"/>
	<rect x="234.213" y="193.362" style="fill:#74D1D2;" width="43.574" height="155.234"/>
</g>
<path style="fill:#C8FEFF;" d="M334.979,193.362h-57.191v155.234h57.191v122.553H177.021V348.596h57.191V193.362h-57.191
	c-17.974,0-32.681,14.706-32.681,32.681v245.106c0,17.974,14.706,32.681,32.681,32.681h157.957
	c17.974,0,32.681-14.706,32.681-32.681V226.043C367.66,208.068,352.953,193.362,334.979,193.362z"/>
<rect x="177.021" y="348.596" style="fill:#FFFFFF;" width="157.957" height="122.553"/>
<g>
	<circle style="fill:#74D1D2;" cx="247.83" cy="426.213" r="8.17"/>
	<circle style="fill:#74D1D2;" cx="215.149" cy="393.532" r="8.17"/>
</g>
<g>
	<path style="fill:#700D00;" d="M160.681,136.171h190.638c4.512,0,8.17-3.658,8.17-8.17c0-4.512-3.658-8.17-8.17-8.17h-9.112
		c-4.677-20.185-26.487-36.444-56.249-43.045V29.958c0-3.095-1.748-5.924-4.516-7.307L237.867,0.863
		c-2.534-1.267-5.542-1.132-7.949,0.357c-2.409,1.489-3.875,4.119-3.875,6.95v68.615c-29.762,6.6-51.571,22.859-56.249,43.045
		h-9.113c-4.512,0-8.17,3.658-8.17,8.17C152.511,132.512,156.169,136.171,160.681,136.171z M242.383,21.39l27.234,13.617v39.226
		c-4.428-0.416-8.974-0.635-13.617-0.635c-4.643,0-9.189,0.218-13.617,0.635V21.39z M256,89.939c33.182,0,61.894,13.03,69.07,29.891
		H186.93C194.106,102.97,222.818,89.939,256,89.939z"/>
	<path style="fill:#700D00;" d="M367.66,250.554c-4.512,0-8.17,3.658-8.17,8.17v212.426c0,13.516-10.995,24.511-24.511,24.511
		H177.021c-13.516,0-24.511-10.995-24.511-24.511V226.043c0-13.516,10.995-24.511,24.511-24.511h49.021v138.894h-49.021
		c-4.512,0-8.17,3.658-8.17,8.17v122.553c0,4.512,3.658,8.17,8.17,8.17h157.957c4.512,0,8.17-3.658,8.17-8.17V348.596
		c0-4.512-3.658-8.17-8.17-8.17h-49.021V201.532h49.021c13.516,0,24.511,10.995,24.511,24.511c0,4.512,3.658,8.17,8.17,8.17
		c4.512,0,8.17-3.658,8.17-8.17c0-22.526-18.325-40.851-40.851-40.851H177.021c-22.526,0-40.851,18.325-40.851,40.851v245.106
		c0,22.526,18.325,40.851,40.851,40.851h157.957c22.526,0,40.851-18.325,40.851-40.851V258.724
		C375.83,254.212,372.172,250.554,367.66,250.554z M326.809,462.979H185.192V356.766h141.617V462.979z M269.617,340.426h-27.234
		V201.532h27.234V340.426z"/>
	<path style="fill:#700D00;" d="M160.681,168.851h190.638c4.512,0,8.17-3.658,8.17-8.17c0-4.512-3.658-8.17-8.17-8.17H160.681
		c-4.512,0-8.17,3.658-8.17,8.17C152.511,165.193,156.169,168.851,160.681,168.851z"/>
</g>
<g>
</g>
<g>
</g>
<g>
</g>
<g>
</g>
<g>
</g>
<g>
</g>
<g>
</g>
<g>
</g>
<g>
</g>
<g>
</g>
<g>
</g>
<g>
</g>
<g>
</g>
<g>
</g>
<g>
</g>
</svg>
