<?xml version="1.0" encoding="iso-8859-1"?>
<!-- Generator: Adobe Illustrator 19.0.0, SVG Export Plug-In . SVG Version: 6.00 Build 0)  -->
<svg version="1.1" id="Layer_1" xmlns="http://www.w3.org/2000/svg" xmlns:xlink="http://www.w3.org/1999/xlink" x="0px" y="0px"
	 viewBox="0 0 512 512" style="enable-background:new 0 0 512 512;" xml:space="preserve">
<polygon style="fill:#EF5352;" points="460.255,389.447 460.255,471.149 378.553,471.149 378.553,389.447 419.404,373.106 "/>
<path style="fill:#FC9851;" d="M264.17,350.829v120.32H84.426v-120.32c44.936,0,44.936,21.787,89.872,21.787
	S219.234,350.829,264.17,350.829z"/>
<polygon style="fill:#E8D6BD;" points="174.298,166.128 250.542,166.128 206.979,231.489 141.617,231.489 98.043,166.128 "/>
<path style="fill:#F9EBDB;" d="M296.851,231.489v272.34H51.745v-272.34l46.298-65.362l43.574,65.362h65.362l43.564-65.362
	C250.553,166.128,296.851,231.489,296.851,231.489z M264.17,471.149v-120.32c-44.936,0-44.936,21.787-89.872,21.787
	s-44.936-21.787-89.872-21.787v120.32H264.17z"/>
<g>
	<circle style="fill:#EF5352;" cx="152.511" cy="435.745" r="8.17"/>
	<circle style="fill:#EF5352;" cx="119.83" cy="403.064" r="8.17"/>
</g>
<g>
	<path style="fill:#700D00;" d="M463.289,381.861l-35.715-14.286V81.702c0-4.513-3.657-8.17-8.17-8.17
		c-4.513,0-8.17,3.657-8.17,8.17v285.872l-35.715,14.286c-3.103,1.242-5.136,4.245-5.136,7.586v81.702c0,4.513,3.657,8.17,8.17,8.17
		h81.702c4.513,0,8.17-3.657,8.17-8.17v-81.702C468.426,386.107,466.392,383.102,463.289,381.861z M452.085,462.979h-65.362v-68
		l32.681-13.072l32.681,13.072V462.979z"/>
	<path style="fill:#700D00;" d="M411.234,49.021c0,4.513,3.657,8.17,8.17,8.17c4.513,0,8.17-3.657,8.17-8.17
		C427.574,21.991,405.583,0,378.553,0c-27.03,0-49.021,21.991-49.021,49.021v43.574c0,18.02-14.661,32.681-32.681,32.681
		c-18.02,0-32.681-14.661-32.681-32.681V49.021C264.17,21.991,242.179,0,215.149,0s-49.021,21.991-49.021,49.021v108.936H98.043
		c-2.65,0-5.135,1.285-6.667,3.448l-46.298,65.362c-0.977,1.381-1.503,3.031-1.503,4.722v32.681c0,4.513,3.657,8.17,8.17,8.17
		s8.17-3.657,8.17-8.17V234.09l42.352-59.792h63.861v16.34h-2.723c-4.513,0-8.17,3.657-8.17,8.17s3.657,8.17,8.17,8.17h21.787
		c4.513,0,8.17-3.657,8.17-8.17s-3.657-8.17-8.17-8.17h-2.723v-16.34h63.861l42.352,59.792v261.57H59.915V296.851
		c0-4.513-3.657-8.17-8.17-8.17s-8.17,3.657-8.17,8.17V503.83c0,4.513,3.657,8.17,8.17,8.17h245.106c4.513,0,8.17-3.657,8.17-8.17
		v-272.34c0-1.692-0.525-3.341-1.503-4.722l-46.298-65.362c-1.532-2.162-4.016-3.448-6.667-3.448h-68.085V49.021
		c0-18.02,14.661-32.681,32.681-32.681s32.681,14.661,32.681,32.681v43.574c0,27.03,21.991,49.021,49.021,49.021
		s49.021-21.991,49.021-49.021V49.021c0-18.02,14.661-32.681,32.681-32.681C396.573,16.34,411.234,31.001,411.234,49.021z"/>
	<path style="fill:#700D00;" d="M141.617,239.66h65.362c2.732,0,5.283-1.365,6.798-3.638l21.787-32.681
		c2.503-3.754,1.488-8.827-2.266-11.329c-3.753-2.504-8.827-1.488-11.329,2.266l-19.362,29.042h-56.617l-19.361-29.042
		c-2.502-3.754-7.575-4.769-11.329-2.266c-3.754,2.503-4.769,7.575-2.266,11.329l21.787,32.681
		C136.334,238.295,138.885,239.66,141.617,239.66z"/>
	<path style="fill:#700D00;" d="M76.255,350.828v120.321c0,4.513,3.657,8.17,8.17,8.17H264.17c4.513,0,8.17-3.657,8.17-8.17V350.828
		c0-4.513-3.657-8.17-8.17-8.17c-24.345,0-37.178,6.222-48.501,11.712c-10.687,5.182-20.78,10.075-41.372,10.075
		s-30.685-4.893-41.372-10.075c-11.324-5.489-24.157-11.712-48.501-11.712C79.912,342.658,76.255,346.315,76.255,350.828z
		 M92.596,359.281c15.301,1.112,24.033,5.347,33.202,9.792c11.324,5.489,24.157,11.712,48.501,11.712s37.178-6.222,48.501-11.712
		c9.168-4.446,17.9-8.68,33.202-9.792v103.697H92.596V359.281z"/>
</g>
<g>
</g>
<g>
</g>
<g>
</g>
<g>
</g>
<g>
</g>
<g>
</g>
<g>
</g>
<g>
</g>
<g>
</g>
<g>
</g>
<g>
</g>
<g>
</g>
<g>
</g>
<g>
</g>
<g>
</g>
</svg>
