<?xml version="1.0" encoding="iso-8859-1"?>
<!-- Generator: Adobe Illustrator 19.0.0, SVG Export Plug-In . SVG Version: 6.00 Build 0)  -->
<svg version="1.1" id="Layer_1" xmlns="http://www.w3.org/2000/svg" xmlns:xlink="http://www.w3.org/1999/xlink" x="0px" y="0px"
	 viewBox="0 0 512 512" style="enable-background:new 0 0 512 512;" xml:space="preserve">
<g>
	<rect x="92.204" y="460.255" style="fill:#F9EBDB;" width="327.593" height="43.574"/>
	<path style="fill:#F9EBDB;" d="M419.807,8.17v43.574c-0.011,0-327.615,0-327.615,0V8.17H419.807z"/>
</g>
<path style="fill:#F7CD95;" d="M419.796,51.745c-61.179,128.915-61.179,279.596,0,408.511H92.204
	c61.179-128.915,61.179-279.596-0.011-408.511H419.796z"/>
<path style="fill:#3C95AB;" d="M298.177,213.822c-25.381-25.381-64.486-31.091-103.386-19.032l122.418,122.418
	C329.269,278.308,323.559,239.204,298.177,213.822z"/>
<path style="fill:#51C0C2;" d="M194.791,194.79c-12.059,38.9-6.349,78.005,19.032,103.386s64.486,31.091,103.386,19.032
	L194.791,194.79z"/>
<g>
	<path style="fill:#FC9851;" d="M92.193,51.745c61.189,128.915,61.189,279.596,0.011,408.511
		C31.014,331.34,31.014,180.66,92.193,51.745z"/>
	<path style="fill:#FC9851;" d="M419.807,51.745c61.179,128.915,61.179,279.596-0.011,408.511
		C358.618,331.34,358.618,180.66,419.807,51.745z"/>
</g>
<g>
	<path style="fill:#700D00;" d="M115.108,403.047c-4.243-1.522-8.925,0.687-10.446,4.937l-4.523,12.618
		c-1.523,4.246,0.684,8.925,4.932,10.449c0.912,0.327,1.842,0.481,2.758,0.481c3.351,0,6.494-2.077,7.691-5.414l4.525-12.627
		C121.567,409.246,119.357,404.569,115.108,403.047z"/>
	<path style="fill:#700D00;" d="M127.333,357.732c-4.38-1.1-8.815,1.565-9.909,5.942l-3.257,13.005
		c-1.097,4.377,1.562,8.814,5.939,9.912c0.667,0.167,1.334,0.247,1.992,0.247c3.658,0,6.988-2.475,7.919-6.186l3.258-13.011
		C134.372,363.263,131.71,358.827,127.333,357.732z"/>
	<path style="fill:#700D00;" d="M135.045,311.431c-4.466-0.663-8.617,2.424-9.278,6.886L123.8,331.58
		c-0.661,4.463,2.419,8.618,6.883,9.281c0.406,0.061,0.809,0.089,1.209,0.089c3.981,0,7.469-2.915,8.071-6.972l1.966-13.27
		C142.592,316.245,139.508,312.09,135.045,311.431z"/>
	<path style="fill:#700D00;" d="M138.189,264.598c-4.477-0.218-8.339,3.253-8.56,7.761l-0.658,13.393
		c-0.222,4.507,3.251,8.34,7.758,8.562c0.137,0.007,0.272,0.01,0.409,0.01c4.328,0,7.938-3.398,8.154-7.768l0.658-13.397
		C146.171,268.652,142.695,264.819,138.189,264.598z"/>
	<path style="fill:#700D00;" d="M136.623,217.688c-4.503,0.284-7.923,4.164-7.641,8.668c0.273,4.341,0.49,8.772,0.645,13.167
		c0.155,4.413,3.78,7.884,8.159,7.884c0.097,0,0.195-0.001,0.292-0.005c4.51-0.158,8.037-3.941,7.878-8.451
		c-0.159-4.547-0.383-9.13-0.666-13.622C145.007,220.826,141.153,217.418,136.623,217.688z"/>
	<path style="fill:#700D00;" d="M130.695,171.133c-4.464,0.662-7.545,4.818-6.883,9.281l1.965,13.261
		c0.6,4.06,4.088,6.977,8.072,6.977c0.398,0,0.8-0.028,1.204-0.088c4.464-0.659,7.548-4.813,6.889-9.277l-1.967-13.272
		C139.313,173.552,135.159,170.479,130.695,171.133z"/>
	<path style="fill:#700D00;" d="M114.171,135.315l3.259,13.005c0.929,3.711,4.259,6.189,7.92,6.189c0.658,0,1.325-0.08,1.99-0.247
		c4.378-1.096,7.037-5.533,5.941-9.91l-3.262-13.014c-1.099-4.378-5.54-7.031-9.913-5.936
		C115.729,126.5,113.072,130.938,114.171,135.315z"/>
	<path style="fill:#700D00;" d="M104.624,103.9c1.162,3.391,4.333,5.523,7.728,5.523c0.879,0,1.773-0.143,2.65-0.443
		c4.269-1.463,6.543-6.109,5.08-10.377c-1.462-4.264-3.011-8.584-4.606-12.841c-1.582-4.225-6.287-6.365-10.517-4.786
		c-4.226,1.583-6.368,6.291-4.786,10.517C101.715,95.607,103.213,99.781,104.624,103.9z"/>
	<path style="fill:#700D00;" d="M407.337,407.986c-1.521-4.25-6.204-6.462-10.446-4.937c-4.249,1.521-6.459,6.197-4.937,10.446
		l4.525,12.627c1.197,3.337,4.339,5.414,7.691,5.414c0.916,0,1.848-0.156,2.758-0.482c4.247-1.523,6.456-6.202,4.932-10.449
		L407.337,407.986z"/>
	<path style="fill:#700D00;" d="M397.832,376.677l-3.256-13.004c-1.095-4.377-5.527-7.038-9.909-5.942
		c-4.378,1.095-7.038,5.531-5.942,9.909l3.258,13.011c0.93,3.709,4.259,6.185,7.919,6.185c0.658,0,1.327-0.08,1.994-0.248
		C396.272,385.492,398.93,381.054,397.832,376.677z"/>
	<path style="fill:#700D00;" d="M381.316,340.86c4.464-0.662,7.545-4.818,6.883-9.281l-1.966-13.263
		c-0.66-4.464-4.811-7.553-9.278-6.886c-4.464,0.659-7.547,4.814-6.886,9.278l1.966,13.27c0.602,4.058,4.089,6.972,8.071,6.972
		C380.505,340.949,380.909,340.92,381.316,340.86z"/>
	<path style="fill:#700D00;" d="M375.272,294.314c4.508-0.222,7.981-4.057,7.758-8.562l-0.658-13.393
		c-0.221-4.508-4.018-7.989-8.56-7.761c-4.508,0.221-7.982,4.055-7.761,8.56l0.658,13.397c0.216,4.371,3.827,7.768,8.154,7.768
		C374.999,294.324,375.135,294.32,375.272,294.314z"/>
	<path style="fill:#700D00;" d="M373.921,247.402c0.098,0.004,0.195,0.005,0.292,0.005c4.38,0,8.006-3.473,8.159-7.884
		c0.155-4.396,0.371-8.826,0.645-13.167c0.283-4.505-3.137-8.384-7.641-8.668c-4.525-0.269-8.384,3.138-8.668,7.641
		c-0.283,4.493-0.507,9.075-0.666,13.622C365.884,243.46,369.411,247.245,373.921,247.402z"/>
	<path style="fill:#700D00;" d="M376.944,200.562c0.405,0.061,0.808,0.089,1.206,0.089c3.983,0,7.471-2.917,8.071-6.975
		l1.966-13.263c0.661-4.463-2.419-8.618-6.883-9.281c-4.451-0.665-8.618,2.417-9.281,6.883l-1.966,13.27
		C369.398,195.748,372.481,199.903,376.944,200.562z"/>
	<path style="fill:#700D00;" d="M384.66,154.261c0.666,0.167,1.333,0.247,1.99,0.247c3.659,0,6.99-2.477,7.92-6.189l3.259-13.005
		c1.098-4.377-1.56-8.815-5.936-9.913c-4.373-1.101-8.815,1.559-9.913,5.936l-3.262,13.014
		C377.623,148.728,380.283,153.166,384.66,154.261z"/>
	<path style="fill:#700D00;" d="M407.04,80.976c-4.228-1.585-8.935,0.56-10.517,4.786c-1.595,4.257-3.144,8.578-4.606,12.841
		c-1.463,4.268,0.81,8.915,5.08,10.377c0.878,0.301,1.771,0.443,2.65,0.443c3.393,0,6.564-2.132,7.728-5.523
		c1.412-4.119,2.91-8.293,4.45-12.408C413.408,87.267,411.266,82.558,407.04,80.976z"/>
	<path style="fill:#700D00;" d="M427.972,49.912V8.17c0-4.513-3.657-8.17-8.17-8.17H92.198c-4.513,0-8.17,3.657-8.17,8.17v41.742
		C54.004,113.821,38.141,185.041,38.141,256c0.001,70.958,15.864,142.178,45.887,206.088v41.742c0,4.513,3.657,8.17,8.17,8.17
		h327.604c4.513,0,8.17-3.657,8.17-8.17v-41.742c30.024-63.91,45.886-135.13,45.887-206.088
		C473.859,185.041,457.996,113.821,427.972,49.912z M417.277,446.171c-1.234-0.037-2.495,0.198-3.69,0.755
		c-4.089,1.909-5.858,6.77-3.95,10.859l1.996,4.281v33.594H100.368v-27.234h286.753c4.513,0,8.17-3.657,8.17-8.17
		c0-4.513-3.657-8.17-8.17-8.17H97.403C40.67,329.133,39.778,189.306,94.725,65.825c0.081,0.002,0.159,0.017,0.24,0.017
		c1.156,0,2.329-0.247,3.445-0.766c4.091-1.905,5.862-6.766,3.957-10.857l-1.998-4.284V16.34h311.263v27.234H124.879
		c-4.513,0-8.17,3.657-8.17,8.17s3.657,8.17,8.17,8.17h289.718C471.33,182.864,472.222,322.689,417.277,446.171z"/>
	<path style="fill:#700D00;" d="M331.431,279.3c0.021-4.512-3.621-8.187-8.134-8.206c-4.532,0-8.187,3.634-8.206,8.134
		c-0.033,7.228-0.804,14.601-2.269,22.037l-48.65-48.65v-50.598c10.747,3.799,20.332,9.686,28.229,17.582
		c8.266,8.265,14.39,18.323,18.203,29.893c1.412,4.284,6.027,6.616,10.317,5.202c4.286-1.412,6.615-6.031,5.202-10.317
		c-4.619-14.019-12.078-26.244-22.167-36.335c-12.358-12.357-27.979-20.665-45.499-24.682c-0.419-0.132-0.855-0.222-1.301-0.285
		c-19.826-4.283-42.018-3.121-64.642,3.867c-0.032,0.009-0.062,0.019-0.094,0.027c-0.082,0.024-0.11,0.039-0.142,0.05
		c-0.255,0.083-0.507,0.178-0.754,0.285c-0.073,0.032-0.144,0.066-0.216,0.1c-0.21,0.099-0.417,0.208-0.621,0.327
		c-0.072,0.042-0.145,0.083-0.216,0.127c-0.203,0.126-0.4,0.265-0.593,0.411c-0.057,0.042-0.114,0.082-0.17,0.125
		c-0.24,0.191-0.474,0.394-0.696,0.615c-0.222,0.222-0.425,0.455-0.615,0.696c-0.046,0.058-0.087,0.12-0.132,0.18
		c-0.143,0.19-0.278,0.382-0.402,0.581c-0.047,0.075-0.09,0.151-0.134,0.228c-0.114,0.198-0.221,0.399-0.318,0.604
		c-0.037,0.077-0.074,0.155-0.108,0.233c-0.102,0.236-0.193,0.476-0.272,0.72c-0.013,0.04-0.033,0.078-0.046,0.12
		c-0.007,0.021-0.012,0.042-0.019,0.063c-0.005,0.02-0.012,0.039-0.017,0.059c-6.998,22.641-8.159,44.848-3.867,64.688
		c0.062,0.43,0.149,0.853,0.277,1.259c4.016,17.527,12.327,33.153,24.687,45.514c18.054,18.053,43.07,27.481,70.809,27.481
		c13.085,0,26.779-2.101,40.632-6.38c0.029-0.009,0.059-0.017,0.088-0.026c0.017-0.005,0.036-0.01,0.054-0.015
		c0.038-0.012,0.073-0.029,0.11-0.041c0.247-0.081,0.49-0.172,0.73-0.277c0.078-0.034,0.156-0.071,0.232-0.108
		c0.204-0.097,0.404-0.202,0.601-0.316c0.078-0.045,0.156-0.089,0.232-0.137c0.195-0.122,0.386-0.255,0.572-0.395
		c0.062-0.047,0.127-0.09,0.188-0.138c0.239-0.191,0.472-0.392,0.693-0.613c0.222-0.222,0.425-0.455,0.615-0.695
		c0.046-0.058,0.087-0.12,0.132-0.179c0.144-0.191,0.279-0.385,0.404-0.584c0.045-0.072,0.087-0.146,0.13-0.22
		c0.118-0.202,0.226-0.407,0.325-0.617c0.035-0.073,0.07-0.145,0.101-0.219c0.108-0.246,0.202-0.496,0.283-0.749
		c0.011-0.033,0.026-0.063,0.036-0.096c0.024-0.082,0.034-0.115,0.044-0.15C329.226,305.98,331.372,292.463,331.431,279.3z
		 M247.831,197.994v38.28l-37.103-37.104C223.66,196.619,236.192,196.259,247.831,197.994z M199.171,210.724l37.105,37.105h-38.281
		C196.258,236.19,196.619,223.656,199.171,210.724z M219.601,292.399c-7.897-7.897-13.785-17.482-17.583-28.23h50.598l48.659,48.66
		C268.974,319.205,239.132,311.933,219.601,292.399z"/>
</g>
<g>
</g>
<g>
</g>
<g>
</g>
<g>
</g>
<g>
</g>
<g>
</g>
<g>
</g>
<g>
</g>
<g>
</g>
<g>
</g>
<g>
</g>
<g>
</g>
<g>
</g>
<g>
</g>
<g>
</g>
</svg>
