<?xml version="1.0" encoding="UTF-8" standalone="no"?>
<svg
   xmlns:dc="http://purl.org/dc/elements/1.1/"
   xmlns:cc="http://creativecommons.org/ns#"
   xmlns:rdf="http://www.w3.org/1999/02/22-rdf-syntax-ns#"
   xmlns:svg="http://www.w3.org/2000/svg"
   xmlns="http://www.w3.org/2000/svg"
   xmlns:sodipodi="http://sodipodi.sourceforge.net/DTD/sodipodi-0.dtd"
   xmlns:inkscape="http://www.inkscape.org/namespaces/inkscape"
   inkscape:version="1.0 (4035a4fb49, 2020-05-01)"
   sodipodi:docname="Latte-2.svg"
   xml:space="preserve"
   style="enable-background:new 0 0 512 512;"
   viewBox="0 0 512 512"
   y="0px"
   x="0px"
   id="Layer_1"
   version="1.1"><metadata
   id="metadata55"><rdf:RDF><cc:Work
       rdf:about=""><dc:format>image/svg+xml</dc:format><dc:type
         rdf:resource="http://purl.org/dc/dcmitype/StillImage" /><dc:title></dc:title></cc:Work></rdf:RDF></metadata><defs
   id="defs53" /><sodipodi:namedview
   inkscape:current-layer="Layer_1"
   inkscape:window-maximized="1"
   inkscape:window-y="-8"
   inkscape:window-x="-8"
   inkscape:cy="256"
   inkscape:cx="256"
   inkscape:zoom="1.6601562"
   showgrid="false"
   id="namedview51"
   inkscape:window-height="1017"
   inkscape:window-width="1920"
   inkscape:pageshadow="2"
   inkscape:pageopacity="0"
   guidetolerance="10"
   gridtolerance="10"
   objecttolerance="10"
   borderopacity="1"
   bordercolor="#666666"
   pagecolor="#ffffff" />
<path
   id="path2"
   d="m 492.936,421.076 -6.405,22.419 c -2.473,8.639 -11.841,15.709 -20.829,15.709 H 73.532 c -8.987,0 -18.356,-7.07 -20.829,-15.709 l -6.405,-22.419 z"
   style="fill:#e8d6bd" />
<path
   id="path4"
   d="m 443.915,130.924 v 87.149 c 0,96.267 -78.042,174.298 -174.298,174.298 -49.849,0 -94.796,-20.927 -126.562,-54.468 H 95.319 c -23.28,0 -45.165,-9.064 -61.625,-25.524 C 17.234,295.919 8.17,274.033 8.17,250.754 c 0,-23.279 9.063,-45.165 25.524,-61.625 16.461,-16.46 38.346,-25.524 61.625,-25.524 V 130.924 H 128 v 32.681 54.468 c 0,78.085 63.532,141.617 141.617,141.617 78.085,0 141.617,-63.532 141.617,-141.617 V 163.605 130.924 Z M 95.319,305.222 h 23.323 C 103.805,279.589 95.319,249.817 95.319,218.073 v -21.787 c -14.554,0 -28.225,5.665 -38.52,15.948 -10.284,10.294 -15.948,23.966 -15.948,38.52 0,14.554 5.665,28.225 15.959,38.52 10.284,10.283 23.955,15.948 38.509,15.948 z"
   style="fill:#c8feff" />
<path
   id="path6"
   d="m 411.234,163.605 v 54.468 c 0,78.085 -63.532,141.617 -141.617,141.617 C 191.532,359.69 128,296.159 128,218.073 v -54.468 c 35.404,0 35.404,15.251 70.809,15.251 35.405,0 35.404,-15.251 70.798,-15.251 35.415,0 35.415,15.251 70.819,15.251 35.404,0 35.404,-15.251 70.808,-15.251 z"
   style="fill:#bd9f79" />
<path
   id="path8"
   d="m 411.234,130.924 v 32.681 c -35.404,0 -35.404,15.251 -70.809,15.251 -35.405,0 -35.404,-15.251 -70.819,-15.251 -35.393,0 -35.393,15.251 -70.798,15.251 -35.405,0 -35.404,-15.251 -70.808,-15.251 v -32.681 z"
   style="fill:#f9ebdb" />
<path
   id="path10"
   d="M 411.234,130.924 H 128 c 0,-21.057 17.07,-38.128 38.128,-38.128 9.989,0 19.075,3.845 25.872,10.131 6.798,-6.286 15.883,-10.131 25.872,-10.131 9.989,0 19.075,3.845 25.872,10.131 6.798,-6.286 15.883,-10.131 25.872,-10.131 9.989,0 19.075,3.845 25.872,10.131 6.798,-6.286 15.883,-10.131 25.872,-10.131 9.989,0 19.075,3.845 25.872,10.131 6.798,-6.286 15.883,-10.131 25.872,-10.131 21.06,10e-4 38.13,17.071 38.13,38.128 z"
   style="fill:#ffffff" />
<g
   transform="translate(0,20)"
   id="g18">
	<path
   id="path12"
   d="M 503.83,392.906 H 35.404 c -4.512,0 -8.17,3.657 -8.17,8.17 0,4.513 3.658,8.17 8.17,8.17 h 4.731 l 4.711,16.491 c 3.466,12.133 16.066,21.637 28.685,21.637 h 392.17 c 12.619,0 25.219,-9.505 28.686,-21.637 l 4.712,-16.491 h 4.73 c 4.513,0 8.17,-3.657 8.17,-8.17 10e-4,-4.513 -3.656,-8.17 -8.169,-8.17 z m -25.154,28.34 c -1.464,5.121 -7.648,9.786 -12.974,9.786 H 73.532 c -5.327,0 -11.51,-4.664 -12.973,-9.786 L 57.13,409.245 h 424.975 z"
   style="fill:#700d00" />
	<path
   id="path14"
   d="m 95.319,293.392 h 23.322 c 2.921,0 5.618,-1.559 7.078,-4.088 1.46,-2.529 1.458,-5.646 -0.004,-8.173 -14.541,-25.135 -22.226,-53.856 -22.226,-83.057 v -21.787 c 0,-4.513 -3.658,-8.17 -8.17,-8.17 -16.732,0 -32.462,6.515 -44.291,18.346 -11.83,11.83 -18.346,27.561 -18.346,44.292 0,16.73 6.515,32.461 18.347,44.292 11.83,11.831 27.56,18.345 44.29,18.345 z M 62.582,198.015 c 6.786,-6.786 15.309,-11.206 24.566,-12.846 v 12.903 c 0,27.416 6.173,54.454 17.945,78.979 h -9.774 c -12.366,0 -23.992,-4.816 -32.737,-13.559 -8.744,-8.745 -13.56,-20.372 -13.56,-32.739 -10e-4,-12.365 4.814,-23.992 13.56,-32.738 z"
   style="fill:#700d00" />
	<path
   id="path16"
   d="m 95.319,326.073 h 44.263 c 34.564,35.155 80.6,54.468 130.034,54.468 100.612,0 182.468,-81.856 182.468,-182.468 v -87.149 c 0,-4.513 -3.657,-8.17 -8.17,-8.17 h -25.248 c -3.872,-21.643 -22.821,-38.128 -45.561,-38.128 -9.302,0 -18.271,2.77 -25.872,7.904 -7.602,-5.134 -16.57,-7.904 -25.872,-7.904 -9.301,0 -18.271,2.77 -25.872,7.904 -7.6,-5.134 -16.57,-7.904 -25.872,-7.904 -9.302,0 -18.271,2.77 -25.872,7.904 -7.6,-5.134 -16.57,-7.904 -25.872,-7.904 -9.302,0 -18.272,2.77 -25.872,7.904 -7.6,-5.134 -16.57,-7.904 -25.872,-7.904 -22.74,0 -41.69,16.484 -45.561,38.128 h -25.25 c -4.512,0 -8.17,3.657 -8.17,8.17 v 24.853 C 64.768,137.664 43.98,147.288 27.917,163.352 9.914,181.356 0,205.294 0,230.754 c 0,25.46 9.915,49.397 27.918,67.401 18.005,18.004 41.942,27.918 67.401,27.918 z M 403.062,135.73 c -14.26,1.035 -22.808,4.697 -30.467,7.997 -8.669,3.734 -16.155,6.959 -32.173,6.959 -16.018,0 -23.504,-3.225 -32.173,-6.959 -9.022,-3.887 -19.25,-8.292 -38.637,-8.292 -19.386,0 -29.613,4.405 -38.635,8.292 -8.668,3.734 -16.154,6.959 -32.171,6.959 -16.017,0 -23.502,-3.225 -32.17,-6.959 -7.658,-3.3 -16.206,-6.962 -30.465,-7.997 V 119.094 H 403.065 V 135.73 Z M 166.127,80.967 c 7.557,0 14.775,2.827 20.326,7.959 3.131,2.896 7.961,2.896 11.093,0 5.55,-5.132 12.77,-7.959 20.325,-7.959 7.555,0 14.775,2.827 20.326,7.959 3.131,2.896 7.961,2.896 11.093,0 5.55,-5.132 12.768,-7.959 20.325,-7.959 7.558,0 14.775,2.827 20.325,7.959 3.132,2.896 7.962,2.896 11.094,0 5.551,-5.132 12.77,-7.959 20.325,-7.959 7.555,0 14.775,2.827 20.325,7.959 3.132,2.896 7.962,2.896 11.094,0 5.551,-5.132 12.769,-7.959 20.325,-7.959 13.686,0 25.249,9.229 28.816,21.787 H 137.309 C 140.876,90.196 152.44,80.967 166.127,80.967 Z M 39.472,174.908 c 14.916,-14.917 34.748,-23.132 55.846,-23.132 4.512,0 8.17,-3.657 8.17,-8.17 v -24.511 h 16.34 v 78.979 c 0,82.592 67.194,149.787 149.787,149.787 34.087,0 66.228,-11.206 92.949,-32.409 3.534,-2.804 4.126,-7.944 1.321,-11.479 -2.804,-3.534 -7.944,-4.125 -11.479,-1.321 -23.801,18.885 -52.431,28.868 -82.792,28.868 -73.582,0 -133.447,-59.864 -133.447,-133.447 v -45.975 c 10.693,0.904 16.956,3.603 24,6.636 9.022,3.887 19.249,8.292 38.635,8.292 19.386,0 29.613,-4.405 38.636,-8.292 8.668,-3.734 16.154,-6.959 32.171,-6.959 16.018,0 23.504,3.225 32.173,6.959 9.022,3.887 19.25,8.292 38.637,8.292 19.387,0 29.615,-4.405 38.637,-8.291 7.045,-3.035 13.309,-5.733 24.003,-6.637 v 45.975 c 0,30.362 -9.983,58.99 -28.868,82.791 -2.805,3.535 -2.212,8.675 1.321,11.479 3.533,2.805 8.672,2.212 11.479,-1.321 21.202,-26.72 32.409,-58.861 32.409,-92.949 v -54.447 c 0,-0.042 0,-24.531 0,-24.531 h 16.342 v 78.979 c 0,91.603 -74.524,166.128 -166.128,166.128 -46.084,0 -88.926,-18.437 -120.633,-51.916 -1.544,-1.63 -3.687,-2.552 -5.932,-2.552 h -47.73 c -21.094,0 -40.928,-8.215 -55.846,-23.133 C 24.556,271.682 16.34,251.85 16.34,230.754 c 0,-21.097 8.215,-40.929 23.132,-55.846 z"
   style="fill:#700d00" />
</g>
<g
   transform="translate(0,20)"
   id="g20">
</g>
<g
   transform="translate(0,20)"
   id="g22">
</g>
<g
   transform="translate(0,20)"
   id="g24">
</g>
<g
   transform="translate(0,20)"
   id="g26">
</g>
<g
   transform="translate(0,20)"
   id="g28">
</g>
<g
   transform="translate(0,20)"
   id="g30">
</g>
<g
   transform="translate(0,20)"
   id="g32">
</g>
<g
   transform="translate(0,20)"
   id="g34">
</g>
<g
   transform="translate(0,20)"
   id="g36">
</g>
<g
   transform="translate(0,20)"
   id="g38">
</g>
<g
   transform="translate(0,20)"
   id="g40">
</g>
<g
   transform="translate(0,20)"
   id="g42">
</g>
<g
   transform="translate(0,20)"
   id="g44">
</g>
<g
   transform="translate(0,20)"
   id="g46">
</g>
<g
   transform="translate(0,20)"
   id="g48">
</g>
</svg>
