<?xml version="1.0" encoding="iso-8859-1"?>
<!-- Generator: Adobe Illustrator 19.0.0, SVG Export Plug-In . SVG Version: 6.00 Build 0)  -->
<svg version="1.1" id="Layer_1" xmlns="http://www.w3.org/2000/svg" xmlns:xlink="http://www.w3.org/1999/xlink" x="0px" y="0px"
	 viewBox="0 0 511.998 511.998" style="enable-background:new 0 0 511.998 511.998;" xml:space="preserve">
<path style="fill:#74D1D2;" d="M420.689,495.18v8.65h-293.3v-8.65c0-8.987,7.103-18.247,15.785-20.589c0,0,60.47-16.264,60.47-41.57
	h140.789c0,25.306,60.47,41.57,60.47,41.57C413.586,476.933,420.689,486.193,420.689,495.18z"/>
<path style="fill:#C8FEFF;" d="M392.147,40.851l-47.714,392.17H203.644l-3.976-32.681h-21.21c-23.28,0-45.165-9.064-61.625-25.524
	s-25.524-38.346-25.524-61.625c0-23.28,9.063-45.165,25.524-61.625s38.346-25.524,61.625-25.524L155.93,40.851h32.921
	l39.555,325.022c0,16.94,91.267,16.94,91.267,0l39.555-325.022H392.147z M195.692,367.66l-13.258-108.936h-3.976
	c-14.543,0-28.225,5.665-38.509,15.948c-10.294,10.294-15.959,23.966-15.959,38.52c0,14.554,5.665,28.225,15.959,38.52
	c10.284,10.284,23.966,15.948,38.509,15.948H195.692z"/>
<path style="fill:#C67741;" d="M359.227,40.851l-39.555,325.022c0,16.94-91.267,16.94-91.267,0L188.851,40.851H359.227z"/>
<path style="fill:#FFFFFF;" d="M359.227,40.851H188.851c0-18.051,14.63-32.681,32.681-32.681c10.752,0,20.295,5.196,26.254,13.214
	c5.959-8.018,15.491-13.214,26.254-13.214c10.752,0,20.295,5.196,26.254,13.214c5.959-8.018,15.491-13.214,26.254-13.214
	C344.597,8.17,359.227,22.8,359.227,40.851z"/>
<g>
	<path style="fill:#700D00;" d="M190.547,257.736c-0.499-4.1-3.979-7.183-8.11-7.183h-3.978c-16.732,0-32.461,6.515-44.291,18.346
		c-11.83,11.83-18.346,27.561-18.346,44.292c0,16.732,6.515,32.461,18.347,44.292c11.83,11.83,27.561,18.346,44.291,18.346h17.232
		c2.339,0,4.566-1.002,6.116-2.753c1.551-1.751,2.277-4.082,1.995-6.403L190.547,257.736z M178.46,359.489
		c-12.366,0-23.992-4.816-32.737-13.56c-8.744-8.744-13.56-20.371-13.56-32.738s4.815-23.993,13.559-32.737
		c7.975-7.975,18.347-12.682,29.492-13.449l11.253,92.485H178.46z"/>
	<path style="fill:#700D00;" d="M407.029,466.703c-21.721-5.842-53.751-20.384-54.418-33.275l47.647-391.592
		c0.283-2.321-0.443-4.653-1.995-6.403c-1.549-1.751-3.776-2.753-6.115-2.753h-25.575C362.777,14.057,346.272,0,326.544,0
		c-9.648,0-18.96,3.473-26.254,9.572C292.998,3.473,283.687,0,274.038,0c-9.648,0-18.96,3.473-26.253,9.572
		C240.492,3.473,231.181,0,221.531,0c-19.728,0-36.233,14.057-40.029,32.681h-25.575c-2.339,0-4.566,1.002-6.116,2.753
		c-1.551,1.751-2.277,4.082-1.995,6.403l21.471,176.467c-21.999,2.086-42.407,11.662-58.231,27.486
		c-18.003,18.004-27.917,41.94-27.917,67.401c0,25.461,9.915,49.398,27.918,67.401c18.004,18.004,41.94,27.918,67.401,27.918h13.972
		l3.032,24.918c-0.67,12.858-32.699,27.414-54.417,33.275c-12.24,3.292-21.828,15.8-21.828,28.475v8.651
		c0,4.512,3.658,8.17,8.17,8.17h293.296c4.512,0,8.17-3.658,8.17-8.17v-8.651C428.857,482.503,419.268,469.996,407.029,466.703z
		 M221.531,16.34c7.835,0,15.012,3.616,19.693,9.919c1.541,2.075,3.974,3.3,6.559,3.3c2.585,0,5.018-1.224,6.559-3.3
		c4.682-6.303,11.86-9.919,19.695-9.919s15.012,3.616,19.693,9.919c1.541,2.075,3.974,3.3,6.559,3.3c2.585,0,5.018-1.224,6.559-3.3
		c4.682-6.303,11.86-9.919,19.695-9.919c10.65,0,19.729,6.831,23.103,16.34H198.429C201.802,23.172,210.881,16.34,221.531,16.34z
		 M412.516,495.66H135.559v-0.48c0-5.275,4.639-11.325,9.732-12.695c0.647-0.174,16.023-4.348,31.641-11.816
		c18.531-8.861,29.741-18.747,33.477-29.476H311.75c4.512,0,8.17-3.658,8.17-8.17c0-4.512-3.658-8.17-8.17-8.17H210.882
		l-3.103-25.498c-0.499-4.1-3.979-7.183-8.11-7.183h-21.208c-21.095,0-40.928-8.215-55.846-23.132
		c-14.917-14.918-23.133-34.751-23.133-55.847c0-21.095,8.215-40.929,23.13-55.846c14.917-14.917,34.751-23.133,55.848-23.133
		c2.339,0,4.566-1.002,6.116-2.753c1.551-1.751,2.277-4.082,1.995-6.403l-21.42-176.035h16.462l38.628,317.445
		c0.731,17.63,33.922,20.283,53.794,20.283c19.874,0,53.066-2.654,53.797-20.284l17.753-145.898
		c0.545-4.479-2.644-8.553-7.123-9.097c-4.479-0.55-8.553,2.644-9.097,7.123l-17.742,145.806
		c-3.105,2.296-16.098,6.009-37.585,6.009s-34.482-3.711-37.586-6.009c-1.558-12.801-32.121-263.974-38.376-315.378h151.926
		l-16.688,137.132c-0.545,4.479,2.645,8.553,7.124,9.097c4.482,0.54,8.552-2.645,9.097-7.124l16.928-139.105h16.462l-46.604,383.013
		c-0.039,0.327-0.06,0.657-0.06,0.987c0,13.911,11.737,26.577,34.884,37.646c15.617,7.468,30.993,11.642,31.641,11.816
		c5.093,1.369,9.731,7.421,9.731,12.695L412.516,495.66L412.516,495.66z"/>
</g>
<g>
</g>
<g>
</g>
<g>
</g>
<g>
</g>
<g>
</g>
<g>
</g>
<g>
</g>
<g>
</g>
<g>
</g>
<g>
</g>
<g>
</g>
<g>
</g>
<g>
</g>
<g>
</g>
<g>
</g>
</svg>
