<?xml version="1.0" encoding="iso-8859-1"?>
<!-- Generator: Adobe Illustrator 19.0.0, SVG Export Plug-In . SVG Version: 6.00 Build 0)  -->
<svg version="1.1" id="Layer_1" xmlns="http://www.w3.org/2000/svg" xmlns:xlink="http://www.w3.org/1999/xlink" x="0px" y="0px"
	 viewBox="0 0 512 512" style="enable-background:new 0 0 512 512;" xml:space="preserve">
<path style="fill:#F7CD95;" d="M327.974,185.202v54.446c0,25.872-20.97,46.853-46.853,46.853h-50.241
	c-25.883,0-46.853-20.981-46.853-46.853v-54.446c0-25.872,20.97-46.853,46.853-46.853h50.241
	C307.003,138.349,327.974,159.33,327.974,185.202z"/>
<path style="fill:#F9EBDB;" d="M454.481,96.18c0,21.646-12.441,40.372-30.546,49.457v282.461c0,23.781-19.271,43.052-43.052,43.052
	H131.115c-23.781,0-43.052-19.271-43.052-43.052V145.637c-18.105-9.085-30.546-27.811-30.546-49.457
	c0-30.557,24.772-55.329,55.329-55.329h286.306C429.709,40.851,454.481,65.623,454.481,96.18z M327.974,239.649v-54.446
	c0-25.872-20.97-46.853-46.853-46.853h-50.241c-25.883,0-46.853,20.981-46.853,46.853v54.446c0,25.872,20.97,46.853,46.853,46.853
	h50.241C307.003,286.502,327.974,265.521,327.974,239.649z"/>
<path style="fill:#FC9851;" d="M487.162,96.18c0,26.134-11.329,50.23-30.546,66.702v265.216c0,41.755-33.977,75.732-75.732,75.732
	H131.115c-41.755,0-75.732-33.977-75.732-75.732V162.881C36.166,146.41,24.837,122.314,24.837,96.18
	c0-48.531,39.478-88.01,88.01-88.01h286.306C447.684,8.17,487.162,47.649,487.162,96.18z M423.935,145.637
	c18.105-9.085,30.546-27.811,30.546-49.457c0-30.557-24.772-55.329-55.329-55.329H112.846c-30.557,0-55.329,24.772-55.329,55.329
	c0,21.646,12.441,40.372,30.546,49.457v282.461c0,23.781,19.271,43.052,43.052,43.052h249.769c23.781,0,43.052-19.271,43.052-43.052
	V145.637z"/>
<g>
	<circle style="fill:#E8D6BD;" cx="338.562" cy="407.759" r="8.17"/>
	<circle style="fill:#E8D6BD;" cx="371.243" cy="375.078" r="8.17"/>
	<circle style="fill:#E8D6BD;" cx="171.879" cy="97.977" r="8.17"/>
</g>
<g>
	<path style="fill:#700D00;" d="M399.156,0H112.844C59.812,0,16.668,43.144,16.668,96.176c0,26.848,11.086,52.274,30.545,70.355
		v261.567c0,46.263,37.639,83.902,83.903,83.902h249.771c46.263,0,83.902-37.639,83.902-83.902V166.532
		c19.458-18.081,30.545-43.507,30.545-70.355C495.331,43.144,452.187,0,399.156,0z M451.298,156.672
		c-1.811,1.552-2.852,3.818-2.852,6.203v265.224c0,37.253-30.307,67.561-67.561,67.561H131.114
		c-37.253,0-67.562-30.307-67.562-67.561V162.876c0-2.385-1.041-4.652-2.852-6.203c-17.599-15.088-27.693-37.137-27.693-60.496
		c0.001-44.023,35.815-79.837,79.837-79.837h286.312c44.021,0,79.835,35.814,79.835,79.836
		C478.991,119.535,468.898,141.585,451.298,156.672z"/>
	<path style="fill:#700D00;" d="M79.893,211c0,4.513,3.657,8.17,8.17,8.17c4.513,0,8.17-3.657,8.17-8.17v-65.362
		c0-3.091-1.744-5.916-4.505-7.302c-16.063-8.062-26.04-24.216-26.04-42.159c0-26.001,21.154-47.155,47.155-47.155h220.95
		c4.513,0,8.17-3.657,8.17-8.17s-3.657-8.17-8.17-8.17h-220.95c-35.012,0-63.496,28.484-63.496,63.496
		c0,22.435,11.58,42.791,30.545,54.274V211z"/>
	<path style="fill:#700D00;" d="M399.156,32.681h-32.681c-4.513,0-8.17,3.657-8.17,8.17s3.657,8.17,8.17,8.17h32.681
		c26.001,0,47.154,21.154,47.154,47.155c0,17.943-9.977,34.097-26.039,42.159c-2.762,1.386-4.506,4.211-4.506,7.302v282.461
		c0,19.233-15.647,34.88-34.88,34.88H131.114c-19.233,0-34.881-15.646-34.881-34.88V243.68c0-4.513-3.657-8.17-8.17-8.17
		s-8.17,3.657-8.17,8.17v184.418c0,28.243,22.978,51.221,51.222,51.221h249.771c28.243,0,51.221-22.978,51.221-51.221V150.451
		c18.965-11.482,30.545-31.84,30.545-54.274C462.65,61.164,434.167,32.681,399.156,32.681z"/>
	<path style="fill:#700D00;" d="M230.877,294.672h50.245c30.342,0,55.026-24.685,55.026-55.027v-54.442
		c0-30.342-24.684-55.026-55.026-55.026h-50.245c-30.342,0-55.026,24.684-55.026,55.026v54.442
		C175.852,269.987,200.536,294.672,230.877,294.672z M192.192,185.205c0-21.331,17.355-38.685,38.685-38.685h50.245
		c21.331,0,38.685,17.355,38.685,38.685v54.442c0,21.332-17.355,38.686-38.685,38.686h-50.245
		c-21.331,0-38.685-17.355-38.685-38.686V185.205z"/>
	<path style="fill:#700D00;" d="M230.877,261.991h50.245c12.322,0,22.345-10.024,22.345-22.346c0-4.513-3.657-8.17-8.17-8.17
		c-4.513,0-8.17,3.657-8.17,8.17c0,3.312-2.694,6.006-6.005,6.006h-50.245c-3.311,0-6.005-2.694-6.005-6.006v-54.442
		c0-3.311,2.694-6.005,6.005-6.005c4.513,0,8.17-3.657,8.17-8.17s-3.657-8.17-8.17-8.17c-12.322,0-22.345,10.023-22.345,22.345
		v54.442C208.533,251.967,218.556,261.991,230.877,261.991z"/>
	<path style="fill:#700D00;" d="M281.122,179.2c3.311,0,6.005,2.694,6.005,6.005c0,4.513,3.657,8.17,8.17,8.17
		c4.513,0,8.17-3.657,8.17-8.17c0-12.322-10.023-22.345-22.345-22.345c-4.513,0-8.17,3.657-8.17,8.17S276.609,179.2,281.122,179.2z"
		/>
</g>
<g>
	<path style="fill:#FFFFFF;" d="M281.122,261.991h-50.245c-12.322,0-22.345-10.024-22.345-22.346v-54.442
		c0-12.322,10.023-22.345,22.345-22.345c4.513,0,8.17,3.657,8.17,8.17s-3.657,8.17-8.17,8.17c-3.311,0-6.005,2.694-6.005,6.005
		v54.442c0,3.312,2.694,6.006,6.005,6.006h50.245c3.311,0,6.005-2.694,6.005-6.006c0-4.513,3.657-8.17,8.17-8.17
		c4.513,0,8.17,3.657,8.17,8.17C303.466,251.967,293.443,261.991,281.122,261.991z"/>
	<path style="fill:#FFFFFF;" d="M295.296,193.375c-4.513,0-8.17-3.657-8.17-8.17c0-3.311-2.694-6.005-6.005-6.005
		c-4.513,0-8.17-3.657-8.17-8.17s3.657-8.17,8.17-8.17c12.322,0,22.345,10.023,22.345,22.345
		C303.466,189.717,299.809,193.375,295.296,193.375z"/>
</g>
<g>
</g>
<g>
</g>
<g>
</g>
<g>
</g>
<g>
</g>
<g>
</g>
<g>
</g>
<g>
</g>
<g>
</g>
<g>
</g>
<g>
</g>
<g>
</g>
<g>
</g>
<g>
</g>
<g>
</g>
</svg>
